<svg width="85" height="85" viewBox="0 0 85 85" fill="none" xmlns="http://www.w3.org/2000/svg">
<path d="M41.8278 9.57141C39.6113 7.35486 35.7555 7.10202 31.2234 8.61272C26.7072 10.1181 21.5992 13.3537 16.9815 17.9714C12.3638 22.5891 9.12821 27.6971 7.62279 32.2133C6.11209 36.7454 6.36493 40.6012 8.58149 42.8178C10.798 45.0343 14.6538 45.2872 19.1859 43.7765C23.7022 42.2711 28.8102 39.0355 33.4279 34.4178C38.0456 29.8001 41.2811 24.6921 42.7865 20.1759C44.2972 15.6438 44.0444 11.788 41.8278 9.57141Z" stroke="url(#paint0_linear_4014_7817)" stroke-width="0.5"/>
<path d="M44.6247 12.3683C42.4082 10.1517 38.5524 9.89889 34.0203 11.4096C29.504 12.915 24.396 16.1506 19.7783 20.7683C15.1607 25.386 11.9251 30.494 10.4197 35.0102C8.90897 39.5423 9.1618 43.3981 11.3784 45.6147C13.5949 47.8312 17.4507 48.084 21.9828 46.5733C26.499 45.0679 31.6071 41.8324 36.2247 37.2147C40.8424 32.597 44.078 27.489 45.5834 22.9727C47.0941 18.4406 46.8413 14.5848 44.6247 12.3683Z" fill="url(#paint1_linear_4014_7817)" stroke="url(#paint2_linear_4014_7817)" stroke-width="0.5"/>
<path d="M47.4294 15.1691C45.2129 12.9525 41.3571 12.6997 36.825 14.2104C32.3087 15.7158 27.2007 18.9514 22.583 23.569C17.9653 28.1867 14.7298 33.2947 13.2244 37.811C11.7137 42.3431 11.9665 46.1989 14.183 48.4154C16.3996 50.632 20.2554 50.8848 24.7875 49.3741C29.3037 47.8687 34.4117 44.6331 39.0294 40.0155C43.6471 35.3978 46.8827 30.2898 48.3881 25.7735C49.8988 21.2414 49.646 17.3856 47.4294 15.1691Z" fill="url(#paint3_linear_4014_7817)" stroke="url(#paint4_linear_4014_7817)" stroke-width="0.5"/>
<path d="M50.2263 17.9699C48.0097 15.7533 44.1539 15.5005 39.6218 17.0112C35.1056 18.5166 29.9976 21.7521 25.3799 26.3698C20.7622 30.9875 17.5266 36.0955 16.0212 40.6118C14.5105 45.1439 14.7634 48.9997 16.9799 51.2162C19.1965 53.4328 23.0523 53.6856 27.5844 52.1749C32.1006 50.6695 37.2086 47.4339 41.8263 42.8162C46.444 38.1985 49.6796 33.0905 51.185 28.5743C52.6957 24.0422 52.4428 20.1864 50.2263 17.9699Z" fill="url(#paint5_linear_4014_7817)" stroke="url(#paint6_linear_4014_7817)" stroke-width="0.5"/>
<path d="M53.0232 20.7628C50.8066 18.5463 46.9508 18.2934 42.4187 19.8041C37.9025 21.3095 32.7945 24.5451 28.1768 29.1628C23.5591 33.7805 20.3235 38.8885 18.8181 43.4047C17.3074 47.9368 17.5602 51.7926 19.7768 54.0092C21.9934 56.2257 25.8491 56.4786 30.3812 54.9679C34.8975 53.4625 40.0055 50.2269 44.6232 45.6092C49.2409 40.9915 52.4764 35.8835 53.9819 31.3673C55.4926 26.8352 55.2397 22.9794 53.0232 20.7628Z" fill="url(#paint7_linear_4014_7817)" stroke="url(#paint8_linear_4014_7817)" stroke-width="0.5"/>
<path d="M55.8278 23.5597C53.6113 21.3431 49.7555 21.0903 45.2234 22.601C40.7072 24.1064 35.5992 27.342 30.9815 31.9597C26.3638 36.5774 23.1282 41.6854 21.6228 46.2016C20.1121 50.7337 20.3649 54.5895 22.5815 56.8061C24.798 59.0226 28.6538 59.2755 33.1859 57.7648C37.7022 56.2593 42.8102 53.0238 47.4279 48.4061C52.0456 43.7884 55.2811 38.6804 56.7865 34.1641C58.2972 29.632 58.0444 25.7763 55.8278 23.5597Z" fill="url(#paint9_linear_4014_7817)" stroke="url(#paint10_linear_4014_7817)" stroke-width="0.5"/>
<path d="M58.6247 26.3683C56.4082 24.1517 52.5524 23.8989 48.0203 25.4096C43.504 26.915 38.396 30.1506 33.7783 34.7683C29.1607 39.386 25.9251 44.494 24.4197 49.0102C22.909 53.5423 23.1618 57.3981 25.3784 59.6147C27.5949 61.8312 31.4507 62.084 35.9828 60.5733C40.499 59.0679 45.6071 55.8324 50.2247 51.2147C54.8424 46.597 58.078 41.489 59.5834 36.9727C61.0941 32.4406 60.8413 28.5848 58.6247 26.3683Z" fill="url(#paint11_linear_4014_7817)" stroke="url(#paint12_linear_4014_7817)" stroke-width="0.5"/>
<path d="M61.4294 29.1691C59.2129 26.9525 55.3571 26.6997 50.825 28.2104C46.3087 29.7158 41.2007 32.9514 36.583 37.569C31.9653 42.1867 28.7298 47.2947 27.2244 51.811C25.7137 56.3431 25.9665 60.1989 28.183 62.4154C30.3996 64.632 34.2554 64.8848 38.7875 63.3741C43.3037 61.8687 48.4117 58.6331 53.0294 54.0155C57.6471 49.3978 60.8827 44.2898 62.3881 39.7735C63.8988 35.2414 63.646 31.3856 61.4294 29.1691Z" fill="url(#paint13_linear_4014_7817)" stroke="url(#paint14_linear_4014_7817)" stroke-width="0.5"/>
<path d="M64.2263 31.9659C62.0097 29.7494 58.1539 29.4966 53.6218 31.0073C49.1056 32.5127 43.9976 35.7482 39.3799 40.3659C34.7622 44.9836 31.5266 50.0916 30.0212 54.6079C28.5105 59.14 28.7634 62.9957 30.9799 65.2123C33.1965 67.4289 37.0523 67.6817 41.5844 66.171C46.1006 64.6656 51.2086 61.43 55.8263 56.8123C60.444 52.1946 63.6796 47.0866 65.185 42.5704C66.6957 38.0383 66.4428 34.1825 64.2263 31.9659Z" fill="url(#paint15_linear_4014_7817)" stroke="url(#paint16_linear_4014_7817)" stroke-width="0.5"/>
<path d="M67.0232 34.7745C64.8066 32.558 60.9508 32.3051 56.4187 33.8158C51.9025 35.3213 46.7945 38.5568 42.1768 43.1745C37.5591 47.7922 34.3235 52.9002 32.8181 57.4165C31.3074 61.9486 31.5602 65.8043 33.7768 68.0209C35.9934 70.2375 39.8491 70.4903 44.3812 68.9796C48.8975 67.4742 54.0055 64.2386 58.6232 59.6209C63.2409 55.0032 66.4764 49.8952 67.9819 45.379C69.4926 40.8469 69.2397 36.9911 67.0232 34.7745Z" fill="url(#paint17_linear_4014_7817)" stroke="url(#paint18_linear_4014_7817)" stroke-width="0.5"/>
<path d="M69.8278 37.5636C67.6113 35.347 63.7555 35.0942 59.2234 36.6049C54.7072 38.1103 49.5992 41.3459 44.9815 45.9636C40.3638 50.5813 37.1282 55.6893 35.6228 60.2055C34.1121 64.7376 34.3649 68.5934 36.5815 70.81C38.798 73.0265 42.6538 73.2794 47.1859 71.7687C51.7022 70.2632 56.8102 67.0277 61.4279 62.41C66.0456 57.7923 69.2811 52.6843 70.7865 48.168C72.2972 43.6359 72.0444 39.7802 69.8278 37.5636Z" fill="url(#paint19_linear_4014_7817)" stroke="url(#paint20_linear_4014_7817)" stroke-width="0.5"/>
<path d="M72.6208 40.3722C70.4043 38.1556 66.5485 37.9028 62.0164 39.4135C57.5001 40.9189 52.3921 44.1545 47.7744 48.7722C43.1567 53.3899 39.9212 58.4979 38.4158 63.0141C36.9051 67.5462 37.1579 71.402 39.3745 73.6186C41.591 75.8351 45.4468 76.088 49.9789 74.5773C54.4951 73.0718 59.6032 69.8363 64.2208 65.2186C68.8385 60.6009 72.0741 55.4929 73.5795 50.9766C75.0902 46.4445 74.8374 42.5888 72.6208 40.3722Z" fill="url(#paint21_linear_4014_7817)" stroke="url(#paint22_linear_4014_7817)" stroke-width="0.5"/>
<path d="M75.4216 43.173C73.205 40.9564 69.3493 40.7036 64.8172 42.2143C60.3009 43.7197 55.1929 46.9553 50.5752 51.573C45.9575 56.1906 42.722 61.2987 41.2165 65.8149C39.7058 70.347 39.9587 74.2028 42.1752 76.4193C44.3918 78.6359 48.2476 78.8887 52.7797 77.378C57.2959 75.8726 62.4039 72.637 67.0216 68.0194C71.6393 63.4017 74.8749 58.2937 76.3803 53.7774C77.891 49.2453 77.6382 45.3895 75.4216 43.173Z" stroke="url(#paint23_linear_4014_7817)" stroke-width="0.5"/>
<path d="M58.6221 48.4437L60.4436 53.8652L66.338 50.4621L61.5693 57.2159L63.3908 62.6374L58.6221 61.39L53.8535 68.1438L55.6749 60.619L50.9063 59.3716L56.8007 55.9685L58.6221 48.4437Z" fill="url(#paint24_radial_4014_7817)"/>
<defs>
<linearGradient id="paint0_linear_4014_7817" x1="9.33634" y1="20.7207" x2="45.4694" y2="12.8011" gradientUnits="userSpaceOnUse">
<stop stop-color="white"/>
<stop offset="1" stop-color="white" stop-opacity="0"/>
</linearGradient>
<linearGradient id="paint1_linear_4014_7817" x1="44.0263" y1="4.42844" x2="57.8071" y2="26.0819" gradientUnits="userSpaceOnUse">
<stop stop-color="white"/>
<stop offset="0.927083" stop-color="#535353"/>
</linearGradient>
<linearGradient id="paint2_linear_4014_7817" x1="36.4015" y1="37.3914" x2="19.6016" y2="20.5915" gradientUnits="userSpaceOnUse">
<stop stop-color="white"/>
<stop offset="1" stop-color="white" stop-opacity="0.6"/>
</linearGradient>
<linearGradient id="paint3_linear_4014_7817" x1="46.831" y1="7.22922" x2="60.6118" y2="28.8827" gradientUnits="userSpaceOnUse">
<stop stop-color="white"/>
<stop offset="0.927083" stop-color="#535353"/>
</linearGradient>
<linearGradient id="paint4_linear_4014_7817" x1="39.2062" y1="40.1922" x2="22.4062" y2="23.3923" gradientUnits="userSpaceOnUse">
<stop stop-color="white"/>
<stop offset="1" stop-color="white" stop-opacity="0.6"/>
</linearGradient>
<linearGradient id="paint5_linear_4014_7817" x1="49.6278" y1="10.03" x2="63.4087" y2="31.6834" gradientUnits="userSpaceOnUse">
<stop stop-color="white"/>
<stop offset="0.927083" stop-color="#535353"/>
</linearGradient>
<linearGradient id="paint6_linear_4014_7817" x1="42.0031" y1="42.993" x2="25.2031" y2="26.1931" gradientUnits="userSpaceOnUse">
<stop stop-color="white"/>
<stop offset="1" stop-color="white" stop-opacity="0.6"/>
</linearGradient>
<linearGradient id="paint7_linear_4014_7817" x1="52.4247" y1="12.823" x2="66.2056" y2="34.4764" gradientUnits="userSpaceOnUse">
<stop stop-color="white"/>
<stop offset="0.927083" stop-color="#535353"/>
</linearGradient>
<linearGradient id="paint8_linear_4014_7817" x1="44.8" y1="45.786" x2="28" y2="28.986" gradientUnits="userSpaceOnUse">
<stop stop-color="white"/>
<stop offset="1" stop-color="white" stop-opacity="0.6"/>
</linearGradient>
<linearGradient id="paint9_linear_4014_7817" x1="55.2294" y1="15.6198" x2="69.0103" y2="37.2733" gradientUnits="userSpaceOnUse">
<stop stop-color="white"/>
<stop offset="0.927083" stop-color="#535353"/>
</linearGradient>
<linearGradient id="paint10_linear_4014_7817" x1="47.6046" y1="48.5829" x2="30.8047" y2="31.7829" gradientUnits="userSpaceOnUse">
<stop stop-color="white"/>
<stop offset="1" stop-color="white" stop-opacity="0.6"/>
</linearGradient>
<linearGradient id="paint11_linear_4014_7817" x1="58.0263" y1="18.4284" x2="71.8071" y2="40.0819" gradientUnits="userSpaceOnUse">
<stop stop-color="white"/>
<stop offset="0.927083" stop-color="#535353"/>
</linearGradient>
<linearGradient id="paint12_linear_4014_7817" x1="50.4015" y1="51.3914" x2="33.6016" y2="34.5915" gradientUnits="userSpaceOnUse">
<stop stop-color="white"/>
<stop offset="1" stop-color="white" stop-opacity="0.6"/>
</linearGradient>
<linearGradient id="paint13_linear_4014_7817" x1="60.831" y1="21.2292" x2="74.6118" y2="42.8827" gradientUnits="userSpaceOnUse">
<stop stop-color="white"/>
<stop offset="0.927083" stop-color="#535353"/>
</linearGradient>
<linearGradient id="paint14_linear_4014_7817" x1="53.2062" y1="54.1922" x2="36.4062" y2="37.3923" gradientUnits="userSpaceOnUse">
<stop stop-color="white"/>
<stop offset="1" stop-color="white" stop-opacity="0.6"/>
</linearGradient>
<linearGradient id="paint15_linear_4014_7817" x1="63.6278" y1="24.0261" x2="77.4087" y2="45.6795" gradientUnits="userSpaceOnUse">
<stop stop-color="white"/>
<stop offset="0.927083" stop-color="#535353"/>
</linearGradient>
<linearGradient id="paint16_linear_4014_7817" x1="56.0031" y1="56.9891" x2="39.2031" y2="40.1891" gradientUnits="userSpaceOnUse">
<stop stop-color="white"/>
<stop offset="1" stop-color="white" stop-opacity="0.6"/>
</linearGradient>
<linearGradient id="paint17_linear_4014_7817" x1="66.4247" y1="26.8347" x2="80.2056" y2="48.4881" gradientUnits="userSpaceOnUse">
<stop stop-color="white"/>
<stop offset="0.927083" stop-color="#535353"/>
</linearGradient>
<linearGradient id="paint18_linear_4014_7817" x1="58.8" y1="59.7977" x2="42" y2="42.9977" gradientUnits="userSpaceOnUse">
<stop stop-color="white"/>
<stop offset="1" stop-color="white" stop-opacity="0.6"/>
</linearGradient>
<linearGradient id="paint19_linear_4014_7817" x1="69.2294" y1="29.6238" x2="83.0103" y2="51.2772" gradientUnits="userSpaceOnUse">
<stop stop-color="white"/>
<stop offset="0.927083" stop-color="#535353"/>
</linearGradient>
<linearGradient id="paint20_linear_4014_7817" x1="61.6046" y1="62.5868" x2="44.8047" y2="45.7868" gradientUnits="userSpaceOnUse">
<stop stop-color="white"/>
<stop offset="1" stop-color="white" stop-opacity="0.6"/>
</linearGradient>
<linearGradient id="paint21_linear_4014_7817" x1="72.0224" y1="32.4323" x2="85.8032" y2="54.0858" gradientUnits="userSpaceOnUse">
<stop stop-color="white"/>
<stop offset="0.927083" stop-color="#535353"/>
</linearGradient>
<linearGradient id="paint22_linear_4014_7817" x1="64.3976" y1="65.3954" x2="47.5977" y2="48.5954" gradientUnits="userSpaceOnUse">
<stop stop-color="white"/>
<stop offset="1" stop-color="white" stop-opacity="0.6"/>
</linearGradient>
<linearGradient id="paint23_linear_4014_7817" x1="48.9281" y1="44.9757" x2="73.6768" y2="76.654" gradientUnits="userSpaceOnUse">
<stop stop-color="white"/>
<stop offset="1" stop-color="white" stop-opacity="0"/>
</linearGradient>
<radialGradient id="paint24_radial_4014_7817" cx="0" cy="0" r="1" gradientUnits="userSpaceOnUse" gradientTransform="translate(58.6221 57.8117) rotate(90) scale(15.0929 13.0709)">
<stop stop-color="#020B36"/>
<stop offset="1" stop-color="#020B36"/>
</radialGradient>
</defs>
</svg>
