<svg width="57" height="64" viewBox="0 0 57 64" fill="none" xmlns="http://www.w3.org/2000/svg">
<path d="M0 47.5L28.5 31L28.5 -3.8147e-06L-6.82946e-07 16.5L0 47.5Z" fill="url(#paint0_linear_4014_7733)"/>
<path fill-rule="evenodd" clip-rule="evenodd" d="M28.5 28L28.5 29L-4.4061e-08 45.5L-6.60915e-08 44.5L28.5 28ZM28.5 27L-8.81221e-08 43.5L-1.10153e-07 42.5L28.5 26L28.5 27ZM-1.54214e-07 40.5L-1.32183e-07 41.5L28.5 25L28.5 24L-1.54214e-07 40.5ZM-1.76244e-07 39.5L-1.98275e-07 38.5L28.5 22L28.5 23L-1.76244e-07 39.5ZM-2.42336e-07 36.5L-2.20305e-07 37.5L28.5 21L28.5 20L-2.42336e-07 36.5ZM-2.64366e-07 35.5L-2.86397e-07 34.5L28.5 18L28.5 19L-2.64366e-07 35.5ZM-3.30458e-07 32.5L-3.08427e-07 33.5L28.5 17L28.5 16L-3.30458e-07 32.5ZM-3.52488e-07 31.5L-3.74519e-07 30.5L28.5 14L28.5 15L-3.52488e-07 31.5ZM-4.1858e-07 28.5L-3.96549e-07 29.5L28.5 13L28.5 12L-4.1858e-07 28.5ZM-4.4061e-07 27.5L-4.62641e-07 26.5L28.5 10L28.5 11L-4.4061e-07 27.5ZM-5.06702e-07 24.5L-4.84671e-07 25.5L28.5 9L28.5 8L-5.06702e-07 24.5ZM-5.28732e-07 23.5L-5.50763e-07 22.5L28.5 6L28.5 7L-5.28732e-07 23.5ZM-5.94824e-07 20.5L-5.72793e-07 21.5L28.5 5L28.5 4L-5.94824e-07 20.5ZM-6.16854e-07 19.5L-6.38885e-07 18.5L28.5 2L28.5 3L-6.16854e-07 19.5ZM-6.82946e-07 16.5L-6.60915e-07 17.5L28.5 0.999996L28.5 -3.8147e-06L-6.82946e-07 16.5ZM28.5 31L28.5 30L-2.20305e-08 46.5L0 47.5L28.5 31Z" fill="url(#paint1_linear_4014_7733)"/>
<path d="M28.5 31.0014L57 47.5014L57 16.5013L28.5 0.00137329L28.5 31.0014Z" fill="url(#paint2_linear_4014_7733)"/>
<path fill-rule="evenodd" clip-rule="evenodd" d="M57 44.5014L57 45.5014L28.5 29.0014L28.5 28.0014L57 44.5014ZM57 43.5014L28.5 27.0014L28.5 26.0014L57 42.5014L57 43.5014ZM28.5 24.0014L28.5 25.0014L57 41.5014L57 40.5014L28.5 24.0014ZM28.5 23.0014L28.5 22.0014L57 38.5014L57 39.5014L28.5 23.0014ZM28.5 20.0014L28.5 21.0014L57 37.5014L57 36.5014L28.5 20.0014ZM28.5 19.0014L28.5 18.0014L57 34.5014L57 35.5014L28.5 19.0014ZM28.5 16.0014L28.5 17.0014L57 33.5014L57 32.5014L28.5 16.0014ZM28.5 15.0014L28.5 14.0014L57 30.5014L57 31.5014L28.5 15.0014ZM28.5 12.0014L28.5 13.0014L57 29.5014L57 28.5014L28.5 12.0014ZM28.5 11.0014L28.5 10.0014L57 26.5014L57 27.5014L28.5 11.0014ZM28.5 8.00137L28.5 9.00137L57 25.5014L57 24.5014L28.5 8.00137ZM28.5 7.00137L28.5 6.00137L57 22.5014L57 23.5014L28.5 7.00137ZM28.5 4.00137L28.5 5.00137L57 21.5014L57 20.5014L28.5 4.00137ZM28.5 3.00137L28.5 2.00137L57 18.5014L57 19.5014L28.5 3.00137ZM28.5 0.0013733L28.5 1.00137L57 17.5014L57 16.5013L28.5 0.0013733ZM57 47.5014L57 46.5014L28.5 30.0014L28.5 31.0014L57 47.5014Z" fill="url(#paint3_linear_4014_7733)"/>
<path d="M0 16.5L28.5 33L28.5 64L-6.82946e-07 47.5L0 16.5Z" fill="url(#paint4_linear_4014_7733)"/>
<path fill-rule="evenodd" clip-rule="evenodd" d="M28.5 36L28.5 35L-4.4061e-08 18.5L-6.60915e-08 19.5L28.5 36ZM28.5 37L-8.81221e-08 20.5L-1.10153e-07 21.5L28.5 38L28.5 37ZM-1.54214e-07 23.5L-1.32183e-07 22.5L28.5 39L28.5 40L-1.54214e-07 23.5ZM-1.76244e-07 24.5L-1.98275e-07 25.5L28.5 42L28.5 41L-1.76244e-07 24.5ZM-2.42336e-07 27.5L-2.20305e-07 26.5L28.5 43L28.5 44L-2.42336e-07 27.5ZM-2.64366e-07 28.5L-2.86397e-07 29.5L28.5 46L28.5 45L-2.64366e-07 28.5ZM-3.30458e-07 31.5L-3.08427e-07 30.5L28.5 47L28.5 48L-3.30458e-07 31.5ZM-3.52488e-07 32.5L-3.74519e-07 33.5L28.5 50L28.5 49L-3.52488e-07 32.5ZM-4.1858e-07 35.5L-3.96549e-07 34.5L28.5 51L28.5 52L-4.1858e-07 35.5ZM-4.4061e-07 36.5L-4.62641e-07 37.5L28.5 54L28.5 53L-4.4061e-07 36.5ZM-5.06702e-07 39.5L-4.84671e-07 38.5L28.5 55L28.5 56L-5.06702e-07 39.5ZM-5.28732e-07 40.5L-5.50763e-07 41.5L28.5 58L28.5 57L-5.28732e-07 40.5ZM-5.94824e-07 43.5L-5.72793e-07 42.5L28.5 59L28.5 60L-5.94824e-07 43.5ZM-6.16854e-07 44.5L-6.38885e-07 45.5L28.5 62L28.5 61L-6.16854e-07 44.5ZM-6.82946e-07 47.5L-6.60915e-07 46.5L28.5 63L28.5 64L-6.82946e-07 47.5ZM28.5 33L28.5 34L-2.20305e-08 17.5L0 16.5L28.5 33Z" fill="url(#paint5_linear_4014_7733)"/>
<path d="M28.5 32.9986L57 16.4986L57 47.4987L28.5 63.9986L28.5 32.9986Z" fill="url(#paint6_linear_4014_7733)"/>
<path fill-rule="evenodd" clip-rule="evenodd" d="M57 19.4986L57 18.4986L28.5 34.9986L28.5 35.9986L57 19.4986ZM57 20.4986L28.5 36.9986L28.5 37.9986L57 21.4986L57 20.4986ZM28.5 39.9986L28.5 38.9986L57 22.4986L57 23.4986L28.5 39.9986ZM28.5 40.9986L28.5 41.9986L57 25.4986L57 24.4986L28.5 40.9986ZM28.5 43.9986L28.5 42.9986L57 26.4986L57 27.4986L28.5 43.9986ZM28.5 44.9986L28.5 45.9986L57 29.4986L57 28.4986L28.5 44.9986ZM28.5 47.9986L28.5 46.9986L57 30.4986L57 31.4986L28.5 47.9986ZM28.5 48.9986L28.5 49.9986L57 33.4986L57 32.4986L28.5 48.9986ZM28.5 51.9986L28.5 50.9986L57 34.4986L57 35.4986L28.5 51.9986ZM28.5 52.9986L28.5 53.9986L57 37.4986L57 36.4986L28.5 52.9986ZM28.5 55.9986L28.5 54.9986L57 38.4986L57 39.4986L28.5 55.9986ZM28.5 56.9986L28.5 57.9986L57 41.4986L57 40.4986L28.5 56.9986ZM28.5 59.9986L28.5 58.9986L57 42.4986L57 43.4986L28.5 59.9986ZM28.5 60.9986L28.5 61.9986L57 45.4986L57 44.4986L28.5 60.9986ZM28.5 63.9986L28.5 62.9986L57 46.4986L57 47.4987L28.5 63.9986ZM57 16.4986L57 17.4986L28.5 33.9986L28.5 32.9986L57 16.4986Z" fill="url(#paint7_linear_4014_7733)"/>
<defs>
<linearGradient id="paint0_linear_4014_7733" x1="14.25" y1="39.2728" x2="0.806896" y2="15.9886" gradientUnits="userSpaceOnUse">
<stop stop-color="#020B36"/>
<stop offset="1" stop-color="#FAED25"/>
</linearGradient>
<linearGradient id="paint1_linear_4014_7733" x1="23.75" y1="38.25" x2="-2.22451" y2="12.7464" gradientUnits="userSpaceOnUse">
<stop stop-color="#020B36"/>
<stop offset="1" stop-color="#020B36" stop-opacity="0"/>
</linearGradient>
<linearGradient id="paint2_linear_4014_7733" x1="31" y1="32.5013" x2="46.5284" y2="12.9666" gradientUnits="userSpaceOnUse">
<stop stop-color="#2B35A3"/>
<stop offset="1" stop-color="#FAED25"/>
</linearGradient>
<linearGradient id="paint3_linear_4014_7733" x1="29" y1="33.2513" x2="54.1142" y2="14.001" gradientUnits="userSpaceOnUse">
<stop stop-color="#020B36"/>
<stop offset="1" stop-color="#020B36" stop-opacity="0"/>
</linearGradient>
<linearGradient id="paint4_linear_4014_7733" x1="6.5473" y1="19.642" x2="-3.09897" y2="58.3633" gradientUnits="userSpaceOnUse">
<stop stop-color="#FAED25"/>
<stop offset="1" stop-color="#2B35A3"/>
</linearGradient>
<linearGradient id="paint5_linear_4014_7733" x1="6.93243" y1="21.1826" x2="-2.55739" y2="50.2938" gradientUnits="userSpaceOnUse">
<stop stop-color="#020B36"/>
<stop offset="1" stop-color="#020B36"/>
</linearGradient>
<linearGradient id="paint6_linear_4014_7733" x1="33.1216" y1="32.35" x2="56.4356" y2="37.3762" gradientUnits="userSpaceOnUse">
<stop stop-color="#FAED25"/>
<stop offset="1" stop-color="#2B35A3"/>
</linearGradient>
<linearGradient id="paint7_linear_4014_7733" x1="31.5811" y1="33.5054" x2="62.9502" y2="35.8066" gradientUnits="userSpaceOnUse">
<stop stop-color="#020B36"/>
<stop offset="1" stop-color="#020B36"/>
</linearGradient>
</defs>
</svg>
