<svg width="168" height="44" viewBox="0 0 168 44" fill="none" xmlns="http://www.w3.org/2000/svg">
<path d="M20.1116 42.8773C20.1116 43.4772 20.744 43.8521 21.2499 43.5522L37.586 33.8671C37.8208 33.7278 37.9655 33.4706 37.9655 33.1922V20.5505C37.9655 19.9506 37.333 19.5757 36.8271 19.8756L20.491 29.5607C20.2562 29.6999 20.1116 29.9572 20.1116 30.2356L20.1116 42.8773Z" fill="#CE1E1E"/>
<path d="M21.2499 26.5117C20.744 26.8117 20.1116 26.4367 20.1116 25.8368V23.1594C20.1116 22.881 20.2562 22.6237 20.491 22.4845L36.8271 12.7994C37.333 12.4995 37.9655 12.8744 37.9655 13.4743V16.1517C37.9655 16.4301 37.8208 16.6874 37.586 16.8266L21.2499 26.5117Z" fill="#CE1E1E"/>
<path d="M17.9196 42.9162C17.9196 43.5161 17.2872 43.8911 16.7813 43.5911L0.379457 33.8671C0.144648 33.7278 0 33.4706 0 33.1922V25.5485C0 24.9485 0.632428 24.5736 1.13837 24.8736L17.5402 34.5976C17.775 34.7368 17.9196 34.9941 17.9196 35.2725L17.9196 42.9162Z" fill="#CE1E1E"/>
<path d="M0.379457 10.9087C0.144648 11.0479 0 11.3052 0 11.5836V21.1497C0 21.4281 0.144647 21.6854 0.379456 21.8246L16.7813 31.5486C17.2872 31.8486 17.9196 31.4736 17.9196 30.8737L17.9195 21.4096C17.9196 21.4098 17.9195 21.4094 17.9195 21.4096C17.9192 21.409 17.9193 21.4083 17.9199 21.408L35.4753 11.0074C35.9815 10.7075 35.9816 9.95747 35.4755 9.65746L19.3622 0.104408C19.1274 -0.0348026 18.8381 -0.0348026 18.6033 0.104408L0.379457 10.9087Z" fill="#CE1E1E"/>
<path d="M60.1931 29.8672V19.3552H57.3611V17.8432H60.1931V15.5632C60.1931 14.3792 60.5131 13.4752 61.1531 12.8512C61.7931 12.2272 62.7131 11.9152 63.9131 11.9152C64.2331 11.9152 64.5211 11.9312 64.7771 11.9632C65.0331 11.9952 65.2811 12.0512 65.5211 12.1312V13.7152C65.2491 13.6352 65.0011 13.5792 64.7771 13.5472C64.5531 13.4992 64.3051 13.4752 64.0331 13.4752C63.3291 13.4752 62.8011 13.6512 62.4491 14.0032C62.1131 14.3392 61.9451 14.8752 61.9451 15.6112V17.8432H65.5211V19.3552H61.9451V29.8672H60.1931ZM68.6417 29.8672V17.8432H70.4177V29.8672H68.6417ZM69.5297 15.5392C69.2097 15.5392 68.9297 15.4192 68.6897 15.1792C68.4497 14.9392 68.3297 14.6512 68.3297 14.3152C68.3297 13.9952 68.4497 13.7232 68.6897 13.4992C68.9297 13.2592 69.2097 13.1392 69.5297 13.1392C69.8657 13.1392 70.1457 13.2592 70.3697 13.4992C70.6097 13.7232 70.7297 14.0032 70.7297 14.3392C70.7297 14.6592 70.6097 14.9392 70.3697 15.1792C70.1457 15.4192 69.8657 15.5392 69.5297 15.5392ZM74.6464 29.8672V17.8432H76.4224V19.2592C77.3664 18.1552 78.6304 17.6032 80.2144 17.6032C81.1264 17.6032 81.9264 17.8032 82.6144 18.2032C83.3184 18.5872 83.8624 19.1312 84.2464 19.8352C84.6464 20.5232 84.8464 21.3312 84.8464 22.2592V29.8672H83.0944V22.6192C83.0944 21.5472 82.7904 20.7072 82.1824 20.0992C81.5904 19.4752 80.7744 19.1632 79.7344 19.1632C79.0144 19.1632 78.3744 19.3232 77.8144 19.6432C77.2544 19.9632 76.7904 20.4192 76.4224 21.0112V29.8672H74.6464ZM94.6583 30.0832C93.5063 30.0832 92.4583 29.8112 91.5143 29.2672C90.5863 28.7072 89.8423 27.9552 89.2823 27.0112C88.7383 26.0672 88.4663 25.0112 88.4663 23.8432C88.4663 22.6912 88.7303 21.6512 89.2583 20.7232C89.7863 19.7792 90.4983 19.0352 91.3943 18.4912C92.2903 17.9312 93.2903 17.6512 94.3943 17.6512C95.4663 17.6512 96.4263 17.9312 97.2743 18.4912C98.1383 19.0352 98.8183 19.7792 99.3143 20.7232C99.8263 21.6512 100.082 22.6912 100.082 23.8432V24.3952H90.2183C90.3143 25.1792 90.5623 25.8832 90.9623 26.5072C91.3783 27.1312 91.9143 27.6272 92.5703 27.9952C93.2263 28.3472 93.9463 28.5232 94.7303 28.5232C95.3543 28.5232 95.9623 28.4272 96.5543 28.2352C97.1463 28.0432 97.6423 27.7712 98.0423 27.4192L99.1463 28.5952C98.4743 29.0912 97.7703 29.4672 97.0343 29.7232C96.3143 29.9632 95.5223 30.0832 94.6583 30.0832ZM90.2663 22.9792H98.3063C98.2103 22.2592 97.9703 21.6192 97.5863 21.0592C97.2183 20.4832 96.7543 20.0352 96.1943 19.7152C95.6343 19.3792 95.0183 19.2112 94.3463 19.2112C93.6583 19.2112 93.0263 19.3712 92.4503 19.6912C91.8743 20.0112 91.3943 20.4592 91.0103 21.0352C90.6263 21.5952 90.3783 22.2432 90.2663 22.9792ZM103.549 29.8672V17.3632H106.837V18.3232C107.733 17.5232 108.821 17.1232 110.101 17.1232C110.917 17.1232 111.645 17.2912 112.285 17.6272C112.925 17.9472 113.453 18.4032 113.869 18.9952C114.381 18.3872 114.981 17.9232 115.669 17.6032C116.373 17.2832 117.149 17.1232 117.997 17.1232C118.941 17.1232 119.765 17.3392 120.469 17.7712C121.189 18.1872 121.749 18.7712 122.149 19.5232C122.565 20.2592 122.773 21.1232 122.773 22.1152V29.8672H119.509V22.5952C119.509 21.7792 119.293 21.1392 118.861 20.6752C118.429 20.1952 117.853 19.9552 117.133 19.9552C116.637 19.9552 116.181 20.0592 115.765 20.2672C115.365 20.4752 115.021 20.7872 114.733 21.2032C114.749 21.3472 114.765 21.4912 114.781 21.6352C114.797 21.7792 114.805 21.9392 114.805 22.1152V29.8672H111.517V22.5952C111.517 21.7792 111.301 21.1392 110.869 20.6752C110.453 20.1952 109.885 19.9552 109.165 19.9552C108.669 19.9552 108.221 20.0512 107.821 20.2432C107.437 20.4352 107.109 20.7232 106.837 21.1072V29.8672H103.549ZM130.46 30.0832C129.564 30.0832 128.772 29.9232 128.084 29.6032C127.396 29.2672 126.86 28.8112 126.476 28.2352C126.092 27.6592 125.9 26.9952 125.9 26.2432C125.9 25.0432 126.348 24.1152 127.244 23.4592C128.156 22.7872 129.404 22.4512 130.988 22.4512C132.076 22.4512 133.1 22.6192 134.06 22.9552V22.0432C134.06 21.3232 133.836 20.7792 133.388 20.4112C132.94 20.0432 132.284 19.8592 131.42 19.8592C130.892 19.8592 130.324 19.9472 129.716 20.1232C129.108 20.2832 128.404 20.5392 127.604 20.8912L126.404 18.4672C127.396 18.0192 128.34 17.6832 129.236 17.4592C130.148 17.2352 131.06 17.1232 131.972 17.1232C133.652 17.1232 134.956 17.5312 135.884 18.3472C136.828 19.1472 137.3 20.2832 137.3 21.7552V29.8672H134.06V28.9792C133.548 29.3632 132.996 29.6432 132.404 29.8192C131.812 29.9952 131.164 30.0832 130.46 30.0832ZM129.02 26.1712C129.02 26.6512 129.228 27.0352 129.644 27.3232C130.06 27.5952 130.612 27.7312 131.3 27.7312C131.844 27.7312 132.348 27.6672 132.812 27.5392C133.276 27.3952 133.692 27.1872 134.06 26.9152V25.0912C133.66 24.9312 133.244 24.8112 132.812 24.7312C132.38 24.6512 131.916 24.6112 131.42 24.6112C130.668 24.6112 130.076 24.7552 129.644 25.0432C129.228 25.3152 129.02 25.6912 129.02 26.1712ZM140.988 29.8672V13.0672L144.276 12.5152V22.6192L149.676 17.3632H153.396L147.492 23.0992L153.756 29.8672H149.556L144.276 24.1552V29.8672H140.988ZM160.871 30.1072C159.623 30.1072 158.487 29.8192 157.463 29.2432C156.455 28.6672 155.655 27.8912 155.063 26.9152C154.471 25.9392 154.175 24.8432 154.175 23.6272C154.175 22.4112 154.455 21.3152 155.015 20.3392C155.591 19.3632 156.367 18.5872 157.343 18.0112C158.319 17.4352 159.407 17.1472 160.607 17.1472C161.807 17.1472 162.871 17.4432 163.799 18.0352C164.727 18.6272 165.455 19.4272 165.983 20.4352C166.527 21.4432 166.799 22.5872 166.799 23.8672V24.7312H157.535C157.679 25.2272 157.911 25.6752 158.231 26.0752C158.567 26.4752 158.975 26.7872 159.455 27.0112C159.951 27.2352 160.479 27.3472 161.039 27.3472C161.599 27.3472 162.111 27.2592 162.575 27.0832C163.055 26.9072 163.463 26.6592 163.799 26.3392L165.959 28.3072C165.191 28.9312 164.399 29.3872 163.583 29.6752C162.783 29.9632 161.879 30.1072 160.871 30.1072ZM157.487 22.3792H163.559C163.447 21.8832 163.239 21.4512 162.935 21.0832C162.647 20.6992 162.295 20.4032 161.879 20.1952C161.479 19.9712 161.031 19.8592 160.535 19.8592C160.023 19.8592 159.559 19.9632 159.143 20.1712C158.727 20.3792 158.375 20.6752 158.087 21.0592C157.815 21.4272 157.615 21.8672 157.487 22.3792Z" fill="#CE1E1E"/>
</svg>
