<svg width="62" height="64" viewBox="0 0 62 64" fill="none" xmlns="http://www.w3.org/2000/svg">
<rect width="35.5556" height="35.5556" transform="matrix(0.866025 0.5 -0.866025 0.5 30.793 28.4453)" fill="url(#paint0_linear_4014_7595)"/>
<rect width="35.5556" height="35.5556" transform="matrix(0.866025 0.5 -0.866025 0.5 30.793 21.3359)" fill="url(#paint1_linear_4014_7595)"/>
<rect width="35.5556" height="35.5556" transform="matrix(0.866025 0.5 -0.866025 0.5 30.793 14.2227)" fill="url(#paint2_linear_4014_7595)"/>
<rect width="35.5556" height="35.5556" transform="matrix(0.866025 0.5 -0.866025 0.5 30.793 7.10938)" fill="url(#paint3_linear_4014_7595)"/>
<rect width="35.5556" height="35.5556" transform="matrix(0.866025 0.5 -0.866025 0.5 30.793 0)" fill="url(#paint4_linear_4014_7595)"/>
<defs>
<linearGradient id="paint0_linear_4014_7595" x1="39.7398" y1="39.3713" x2="7.7398" y2="39.3713" gradientUnits="userSpaceOnUse">
<stop stop-color="#FAED25"/>
<stop offset="1" stop-color="#2B35A3" stop-opacity="0.8"/>
</linearGradient>
<linearGradient id="paint1_linear_4014_7595" x1="39.2954" y1="38.9269" x2="2.28492" y2="40.4051" gradientUnits="userSpaceOnUse">
<stop stop-color="#FAED25"/>
<stop offset="1" stop-color="#2B35A3"/>
</linearGradient>
<linearGradient id="paint2_linear_4014_7595" x1="39.2954" y1="38.9269" x2="2.28492" y2="40.4051" gradientUnits="userSpaceOnUse">
<stop stop-color="#FAED25"/>
<stop offset="1" stop-color="#2B35A3"/>
</linearGradient>
<linearGradient id="paint3_linear_4014_7595" x1="39.2954" y1="38.9269" x2="2.28492" y2="40.4051" gradientUnits="userSpaceOnUse">
<stop stop-color="#FAED25"/>
<stop offset="1" stop-color="#2B35A3"/>
</linearGradient>
<linearGradient id="paint4_linear_4014_7595" x1="39.2954" y1="38.9269" x2="2.28492" y2="40.4051" gradientUnits="userSpaceOnUse">
<stop stop-color="#FAED25"/>
<stop offset="1" stop-color="#2B35A3"/>
</linearGradient>
</defs>
</svg>
