<svg width="40" height="40" viewBox="0 0 40 40" fill="none" xmlns="http://www.w3.org/2000/svg">
<path d="M36.0329 27.353L30.3951 26.6222C29.0378 26.5177 27.6808 26.9356 26.7411 27.9795L22.6695 32.0511C16.301 28.8147 11.1853 23.699 7.9489 17.3306L12.1249 13.2589C13.0645 12.3193 13.4821 10.9621 13.3778 9.60489L12.7513 3.96724C12.4381 1.67042 10.5589 0 8.2621 0H4.39925C1.89363 0 -0.194384 2.08802 0.0144182 4.59364C1.16283 23.699 16.4054 38.8372 35.4064 39.9855C37.912 40.1944 40 38.1064 40 35.6008V31.7379C40 29.4412 38.3296 27.5619 36.0329 27.353Z" fill="white"/>
</svg>
