<svg width="100" height="100" viewBox="0 0 100 100" fill="none" xmlns="http://www.w3.org/2000/svg">
<path d="M59.625 22H40.375V40.375H22V59.625H40.375V78H59.625V59.625H78V40.375H59.625V22Z" fill="#020B36"/>
<path d="M40.375 22H59.625V78H40.375V22Z" fill="url(#paint0_linear_4014_7846)"/>
<path d="M22 59.625V40.375H78V59.625H22Z" fill="url(#paint1_linear_4014_7846)"/>
<path d="M78 59.598V56.8671L75.2421 59.625H77.973L78 59.598Z" fill="url(#paint2_linear_4014_7846)"/>
<path d="M59.625 77.973V75.2421L56.8671 78H59.598L59.625 77.973Z" fill="url(#paint3_linear_4014_7846)"/>
<path d="M54.1362 78L59.625 72.5112V69.7803L51.4053 78H54.1362Z" fill="url(#paint4_linear_4014_7846)"/>
<path d="M48.6744 78L59.625 67.0494V64.3185L45.9435 78H48.6744Z" fill="url(#paint5_linear_4014_7846)"/>
<path d="M43.2127 78L59.625 61.5877V59.625H61.5877L78 43.2127V40.4818L40.4818 78H43.2127Z" fill="url(#paint6_linear_4014_7846)"/>
<path d="M40.375 75.3758L75.3758 40.375H72.6449L40.375 72.6449V75.3758Z" fill="url(#paint7_linear_4014_7846)"/>
<path d="M40.375 69.914L69.914 40.375H67.1831L40.375 67.1831V69.914Z" fill="url(#paint8_linear_4014_7846)"/>
<path d="M40.375 64.4522L64.4522 40.375H61.7213L40.375 61.7213V64.4522Z" fill="url(#paint9_linear_4014_7846)"/>
<path d="M39.7405 59.625L59.625 39.7405V37.0096L37.0096 59.625H39.7405Z" fill="url(#paint10_linear_4014_7846)"/>
<path d="M34.2787 59.625L59.625 34.2787V31.5478L31.5478 59.625H34.2787Z" fill="url(#paint11_linear_4014_7846)"/>
<path d="M28.8169 59.625L59.625 28.8169V26.086L26.086 59.625H28.8169Z" fill="url(#paint12_linear_4014_7846)"/>
<path d="M23.3551 59.625L59.625 23.3551V22H58.2492L40.375 39.8742V40.375H39.8742L22 58.2492V59.625H23.3551Z" fill="url(#paint13_linear_4014_7846)"/>
<path d="M22 55.5183L37.1433 40.375H34.4124L22 52.7874V55.5183Z" fill="url(#paint14_linear_4014_7846)"/>
<path d="M22 50.0565L31.6815 40.375H28.9506L22 47.3256V50.0565Z" fill="url(#paint15_linear_4014_7846)"/>
<path d="M22 44.5947L26.2197 40.375H23.4888L22 41.8638V44.5947Z" fill="url(#paint16_linear_4014_7846)"/>
<path d="M40.375 23.4888V26.2197L44.5947 22H41.8638L40.375 23.4888Z" fill="url(#paint17_linear_4014_7846)"/>
<path d="M47.3256 22L40.375 28.9506V31.6815L50.0565 22H47.3256Z" fill="url(#paint18_linear_4014_7846)"/>
<path d="M52.7874 22L40.375 34.4124V37.1433L55.5183 22H52.7874Z" fill="url(#paint19_linear_4014_7846)"/>
<path d="M78 45.9435L64.3185 59.625H67.0494L78 48.6744V45.9435Z" fill="url(#paint20_linear_4014_7846)"/>
<path d="M78 51.4053L69.7803 59.625H72.5112L78 54.1362V51.4053Z" fill="url(#paint21_linear_4014_7846)"/>
<defs>
<linearGradient id="paint0_linear_4014_7846" x1="33" y1="22" x2="71.5" y2="85" gradientUnits="userSpaceOnUse">
<stop stop-color="white"/>
<stop offset="1" stop-color="#020B36"/>
</linearGradient>
<linearGradient id="paint1_linear_4014_7846" x1="33" y1="22" x2="71.5" y2="85" gradientUnits="userSpaceOnUse">
<stop stop-color="white"/>
<stop offset="1" stop-color="#020B36"/>
</linearGradient>
<linearGradient id="paint2_linear_4014_7846" x1="66" y1="78" x2="28.5" y2="29" gradientUnits="userSpaceOnUse">
<stop stop-color="#020B36"/>
<stop offset="1" stop-color="#020B36" stop-opacity="0.05"/>
</linearGradient>
<linearGradient id="paint3_linear_4014_7846" x1="66" y1="78" x2="28.5" y2="29" gradientUnits="userSpaceOnUse">
<stop stop-color="#020B36"/>
<stop offset="1" stop-color="#020B36" stop-opacity="0.05"/>
</linearGradient>
<linearGradient id="paint4_linear_4014_7846" x1="66" y1="78" x2="28.5" y2="29" gradientUnits="userSpaceOnUse">
<stop stop-color="#020B36"/>
<stop offset="1" stop-color="#020B36" stop-opacity="0.05"/>
</linearGradient>
<linearGradient id="paint5_linear_4014_7846" x1="66" y1="78" x2="28.5" y2="29" gradientUnits="userSpaceOnUse">
<stop stop-color="#020B36"/>
<stop offset="1" stop-color="#020B36" stop-opacity="0.05"/>
</linearGradient>
<linearGradient id="paint6_linear_4014_7846" x1="66" y1="78" x2="28.5" y2="29" gradientUnits="userSpaceOnUse">
<stop stop-color="#020B36"/>
<stop offset="1" stop-color="#020B36" stop-opacity="0.05"/>
</linearGradient>
<linearGradient id="paint7_linear_4014_7846" x1="66" y1="78" x2="28.5" y2="29" gradientUnits="userSpaceOnUse">
<stop stop-color="#020B36"/>
<stop offset="1" stop-color="#020B36" stop-opacity="0.05"/>
</linearGradient>
<linearGradient id="paint8_linear_4014_7846" x1="66" y1="78" x2="28.5" y2="29" gradientUnits="userSpaceOnUse">
<stop stop-color="#020B36"/>
<stop offset="1" stop-color="#020B36" stop-opacity="0.05"/>
</linearGradient>
<linearGradient id="paint9_linear_4014_7846" x1="66" y1="78" x2="28.5" y2="29" gradientUnits="userSpaceOnUse">
<stop stop-color="#020B36"/>
<stop offset="1" stop-color="#020B36" stop-opacity="0.05"/>
</linearGradient>
<linearGradient id="paint10_linear_4014_7846" x1="66" y1="78" x2="28.5" y2="29" gradientUnits="userSpaceOnUse">
<stop stop-color="#020B36"/>
<stop offset="1" stop-color="#020B36" stop-opacity="0.05"/>
</linearGradient>
<linearGradient id="paint11_linear_4014_7846" x1="66" y1="78" x2="28.5" y2="29" gradientUnits="userSpaceOnUse">
<stop stop-color="#020B36"/>
<stop offset="1" stop-color="#020B36" stop-opacity="0.05"/>
</linearGradient>
<linearGradient id="paint12_linear_4014_7846" x1="66" y1="78" x2="28.5" y2="29" gradientUnits="userSpaceOnUse">
<stop stop-color="#020B36"/>
<stop offset="1" stop-color="#020B36" stop-opacity="0.05"/>
</linearGradient>
<linearGradient id="paint13_linear_4014_7846" x1="66" y1="78" x2="28.5" y2="29" gradientUnits="userSpaceOnUse">
<stop stop-color="#020B36"/>
<stop offset="1" stop-color="#020B36" stop-opacity="0.05"/>
</linearGradient>
<linearGradient id="paint14_linear_4014_7846" x1="66" y1="78" x2="28.5" y2="29" gradientUnits="userSpaceOnUse">
<stop stop-color="#020B36"/>
<stop offset="1" stop-color="#020B36" stop-opacity="0.05"/>
</linearGradient>
<linearGradient id="paint15_linear_4014_7846" x1="66" y1="78" x2="28.5" y2="29" gradientUnits="userSpaceOnUse">
<stop stop-color="#020B36"/>
<stop offset="1" stop-color="#020B36" stop-opacity="0.05"/>
</linearGradient>
<linearGradient id="paint16_linear_4014_7846" x1="66" y1="78" x2="28.5" y2="29" gradientUnits="userSpaceOnUse">
<stop stop-color="#020B36"/>
<stop offset="1" stop-color="#020B36" stop-opacity="0.05"/>
</linearGradient>
<linearGradient id="paint17_linear_4014_7846" x1="66" y1="78" x2="28.5" y2="29" gradientUnits="userSpaceOnUse">
<stop stop-color="#020B36"/>
<stop offset="1" stop-color="#020B36" stop-opacity="0.05"/>
</linearGradient>
<linearGradient id="paint18_linear_4014_7846" x1="66" y1="78" x2="28.5" y2="29" gradientUnits="userSpaceOnUse">
<stop stop-color="#020B36"/>
<stop offset="1" stop-color="#020B36" stop-opacity="0.05"/>
</linearGradient>
<linearGradient id="paint19_linear_4014_7846" x1="66" y1="78" x2="28.5" y2="29" gradientUnits="userSpaceOnUse">
<stop stop-color="#020B36"/>
<stop offset="1" stop-color="#020B36" stop-opacity="0.05"/>
</linearGradient>
<linearGradient id="paint20_linear_4014_7846" x1="66" y1="78" x2="28.5" y2="29" gradientUnits="userSpaceOnUse">
<stop stop-color="#020B36"/>
<stop offset="1" stop-color="#020B36" stop-opacity="0.05"/>
</linearGradient>
<linearGradient id="paint21_linear_4014_7846" x1="66" y1="78" x2="28.5" y2="29" gradientUnits="userSpaceOnUse">
<stop stop-color="#020B36"/>
<stop offset="1" stop-color="#020B36" stop-opacity="0.05"/>
</linearGradient>
</defs>
</svg>
