<svg width="100" height="100" viewBox="0 0 100 100" fill="none" xmlns="http://www.w3.org/2000/svg">
<mask id="mask0_4014_7810" style="mask-type:alpha" maskUnits="userSpaceOnUse" x="0" y="0" width="100" height="100">
<path fill-rule="evenodd" clip-rule="evenodd" d="M0 0H25C11.1929 0 0 11.1929 0 25V0ZM25 50C11.1929 50 0 38.8071 0 25V75V100H25H75H100V75V25V0H75H25C38.8071 0 50 11.1929 50 25C50 38.8071 38.8071 50 25 50ZM50 75C50 88.8071 61.1929 100 75 100C88.8071 100 100 88.8071 100 75C100 61.1929 88.8071 50 75 50C88.8071 50 100 38.8071 100 25C100 11.1929 88.8071 0 75 0C61.1929 0 50 11.1929 50 25C50 38.8071 61.1929 50 75 50C61.1929 50 50 61.1929 50 75ZM50 75C50 88.8071 38.8071 100 25 100C11.1929 100 0 88.8071 0 75C0 61.1929 11.1929 50 25 50C38.8071 50 50 61.1929 50 75Z" fill="#FAED25"/>
</mask>
<g mask="url(#mask0_4014_7810)">
<rect x="25" y="25" width="50" height="50" fill="#E33C3C"/>
</g>
</svg>
