<svg width="56" height="64" viewBox="0 0 56 64" fill="none" xmlns="http://www.w3.org/2000/svg">
<path d="M0.499983 16.2902L28 0.575856L55.5 16.2902V47.7098L28 63.4241L0.499983 47.7098V16.2902Z" fill="url(#paint0_radial_4014_7582)" stroke="url(#paint1_linear_4014_7582)" stroke-width="0.999966"/>
<path d="M3.99608 18.2902L27.9961 4.57586L51.9961 18.2902V45.7099L27.9961 59.4241L3.99608 45.7099V18.2902Z" fill="url(#paint2_radial_4014_7582)" stroke="url(#paint3_linear_4014_7582)" stroke-width="0.999966"/>
<path d="M7.5078 20.2902L28.0078 8.57586L48.5078 20.2902V43.7098L28.0078 55.4241L7.5078 43.7098V20.2902Z" fill="url(#paint4_radial_4014_7582)" stroke="url(#paint5_linear_4014_7582)" stroke-width="0.999966"/>
<path d="M11 22.2902L28 12.5759L45 22.2901V41.7098L28 51.4241L11 41.7098V22.2902Z" fill="url(#paint6_radial_4014_7582)" stroke="url(#paint7_linear_4014_7582)" stroke-width="0.999966"/>
<path d="M14.4961 24.2902L27.9961 16.5759L41.4961 24.2902V39.7098L27.9961 47.4241L14.4961 39.7098V24.2902Z" fill="url(#paint8_radial_4014_7582)" stroke="url(#paint9_linear_4014_7582)" stroke-width="0.999966"/>
<path d="M28 20L38.5 26V38L28 44L17.5 38V26L28 20Z" fill="url(#paint10_radial_4014_7582)"/>
<defs>
<radialGradient id="paint0_radial_4014_7582" cx="0" cy="0" r="1" gradientUnits="userSpaceOnUse" gradientTransform="translate(28.0001 32) rotate(90) scale(32 32.3316)">
<stop stop-color="#FAED25" stop-opacity="0.3"/>
<stop offset="1" stop-color="white" stop-opacity="0"/>
</radialGradient>
<linearGradient id="paint1_linear_4014_7582" x1="17.3912" y1="-9.53674e-07" x2="41.205" y2="64.1614" gradientUnits="userSpaceOnUse">
<stop stop-color="#FAED25"/>
<stop offset="1" stop-color="white" stop-opacity="0"/>
</linearGradient>
<radialGradient id="paint2_radial_4014_7582" cx="0" cy="0" r="1" gradientUnits="userSpaceOnUse" gradientTransform="translate(27.9962 32) rotate(90) scale(28 28.2902)">
<stop stop-color="#FAED25"/>
<stop offset="0.546875" stop-color="white" stop-opacity="0"/>
</radialGradient>
<linearGradient id="paint3_linear_4014_7582" x1="18.7134" y1="4" x2="39.5504" y2="60.1413" gradientUnits="userSpaceOnUse">
<stop stop-color="#FAED25"/>
<stop offset="1" stop-color="white" stop-opacity="0"/>
</linearGradient>
<radialGradient id="paint4_radial_4014_7582" cx="0" cy="0" r="1" gradientUnits="userSpaceOnUse" gradientTransform="translate(28.0079 32) rotate(90) scale(24 24.2487)">
<stop stop-color="#FAED25"/>
<stop offset="0.546875" stop-color="white" stop-opacity="0"/>
</radialGradient>
<linearGradient id="paint5_linear_4014_7582" x1="20.0512" y1="8" x2="37.9115" y2="56.1211" gradientUnits="userSpaceOnUse">
<stop stop-color="#FAED25"/>
<stop offset="1" stop-color="white" stop-opacity="0"/>
</linearGradient>
<radialGradient id="paint6_radial_4014_7582" cx="0" cy="0" r="1" gradientUnits="userSpaceOnUse" gradientTransform="translate(28.0001 32) rotate(90) scale(20 20.2073)">
<stop stop-color="#FAED25"/>
<stop offset="0.546875" stop-color="white" stop-opacity="0"/>
</radialGradient>
<linearGradient id="paint7_linear_4014_7582" x1="21.3695" y1="12" x2="36.2531" y2="52.1009" gradientUnits="userSpaceOnUse">
<stop stop-color="#FAED25"/>
<stop offset="1" stop-color="white" stop-opacity="0"/>
</linearGradient>
<radialGradient id="paint8_radial_4014_7582" cx="0" cy="0" r="1" gradientUnits="userSpaceOnUse" gradientTransform="translate(27.9961 32) rotate(90) scale(16 16.1658)">
<stop stop-color="#FAED25"/>
<stop offset="0.546875" stop-color="white" stop-opacity="0"/>
</radialGradient>
<linearGradient id="paint9_linear_4014_7582" x1="22.6917" y1="16" x2="34.5985" y2="48.0807" gradientUnits="userSpaceOnUse">
<stop stop-color="#FAED25"/>
<stop offset="1" stop-color="white" stop-opacity="0"/>
</linearGradient>
<radialGradient id="paint10_radial_4014_7582" cx="0" cy="0" r="1" gradientUnits="userSpaceOnUse" gradientTransform="translate(28 32) rotate(90) scale(12 12.1244)">
<stop stop-color="#FAED25"/>
<stop offset="0.546875" stop-color="white" stop-opacity="0"/>
</radialGradient>
</defs>
</svg>
