<svg width="62" height="62" viewBox="0 0 62 62" fill="none" xmlns="http://www.w3.org/2000/svg">
<circle cx="31" cy="31" r="30.5" fill="white" fill-opacity="0.5" stroke="#333333"/>
<path d="M31.3536 15.6464C31.1583 15.4512 30.8417 15.4512 30.6464 15.6464L27.4645 18.8284C27.2692 19.0237 27.2692 19.3403 27.4645 19.5355C27.6597 19.7308 27.9763 19.7308 28.1716 19.5355L31 16.7071L33.8284 19.5355C34.0237 19.7308 34.3403 19.7308 34.5355 19.5355C34.7308 19.3403 34.7308 19.0237 34.5355 18.8284L31.3536 15.6464ZM30.5 46C30.5 46.2761 30.7239 46.5 31 46.5C31.2761 46.5 31.5 46.2761 31.5 46L30.5 46ZM30.5 16L30.5 46L31.5 46L31.5 16L30.5 16Z" fill="black"/>
</svg>
