<svg width="312" height="180" viewBox="0 0 312 180" fill="none" xmlns="http://www.w3.org/2000/svg">
<rect width="312" height="180" rx="8" fill="#2B35A3"/>
<path d="M132.867 65.8556L142.489 74.5984L168.949 47.3984" stroke="white" stroke-width="2.55" stroke-linecap="round" stroke-linejoin="round"/>
<path d="M240 76.0714L242.113 78L247.924 72" stroke="white" stroke-linecap="round" stroke-linejoin="round"/>
<path d="M43.807 122.8V124.464H40.239V134H38.575V124.464H35.015V122.8H43.807ZM53.6131 128.984V134H51.9491V129.392C51.9491 129.035 51.8611 128.709 51.6851 128.416C51.5145 128.123 51.2825 127.891 50.9891 127.72C50.7011 127.544 50.3758 127.456 50.0131 127.456C49.6611 127.456 49.3385 127.544 49.0451 127.72C48.7518 127.891 48.5171 128.123 48.3411 128.416C48.1651 128.709 48.0771 129.035 48.0771 129.392V134H46.4131V122H48.0771V126.848C48.3545 126.517 48.6958 126.256 49.1011 126.064C49.5065 125.872 49.9438 125.776 50.4131 125.776C51.0051 125.776 51.5438 125.92 52.0291 126.208C52.5145 126.496 52.8985 126.883 53.1811 127.368C53.4691 127.853 53.6131 128.392 53.6131 128.984ZM62.2778 126H63.9418V134H62.2698L62.2058 132.84C61.9711 133.251 61.6538 133.581 61.2538 133.832C60.8538 134.083 60.3818 134.208 59.8378 134.208C59.2511 134.208 58.6991 134.099 58.1818 133.88C57.6644 133.656 57.2084 133.347 56.8138 132.952C56.4244 132.557 56.1204 132.104 55.9018 131.592C55.6831 131.075 55.5738 130.52 55.5738 129.928C55.5738 129.357 55.6804 128.821 55.8938 128.32C56.1071 127.813 56.4031 127.371 56.7818 126.992C57.1604 126.613 57.5978 126.317 58.0938 126.104C58.5951 125.885 59.1311 125.776 59.7018 125.776C60.2831 125.776 60.7951 125.909 61.2378 126.176C61.6858 126.437 62.0564 126.773 62.3498 127.184L62.2778 126ZM59.7977 132.6C60.2671 132.6 60.6778 132.485 61.0298 132.256C61.3818 132.021 61.6538 131.707 61.8458 131.312C62.0431 130.917 62.1418 130.48 62.1418 130C62.1418 129.515 62.0431 129.075 61.8458 128.68C61.6484 128.285 61.3738 127.973 61.0218 127.744C60.6751 127.509 60.2671 127.392 59.7977 127.392C59.3338 127.392 58.9098 127.509 58.5258 127.744C58.1418 127.979 57.8378 128.293 57.6138 128.688C57.3898 129.083 57.2778 129.52 57.2778 130C57.2778 130.485 57.3924 130.925 57.6218 131.32C57.8564 131.709 58.1631 132.021 58.5418 132.256C58.9258 132.485 59.3444 132.6 59.7977 132.6ZM73.7381 128.984V134H72.0741V129.392C72.0741 129.035 71.9861 128.709 71.8101 128.416C71.6395 128.123 71.4075 127.891 71.1141 127.72C70.8261 127.544 70.5008 127.456 70.1381 127.456C69.7861 127.456 69.4635 127.544 69.1701 127.72C68.8768 127.891 68.6421 128.123 68.4661 128.416C68.2901 128.709 68.2021 129.035 68.2021 129.392V134H66.5381V126H68.2021V126.848C68.4795 126.517 68.8208 126.256 69.2261 126.064C69.6315 125.872 70.0688 125.776 70.5381 125.776C71.1301 125.776 71.6688 125.92 72.1541 126.208C72.6395 126.496 73.0235 126.883 73.3061 127.368C73.5941 127.853 73.7381 128.392 73.7381 128.984ZM83.2375 134H81.3175L79.3495 130.608L78.0615 132.144V134H76.3975V122H78.0615V129.56L81.0375 126H83.2135L80.4855 129.256L83.2375 134ZM96.0338 126H97.8098L93.4258 138H91.6578L93.1058 134L90.2338 126H92.0498L93.9378 131.72L96.0338 126ZM103.246 134.208C102.51 134.208 101.838 134.019 101.23 133.64C100.627 133.261 100.144 132.755 99.7816 132.12C99.4243 131.48 99.2456 130.773 99.2456 130C99.2456 129.413 99.3496 128.867 99.5576 128.36C99.7656 127.848 100.051 127.4 100.414 127.016C100.782 126.627 101.208 126.323 101.694 126.104C102.179 125.885 102.696 125.776 103.246 125.776C103.982 125.776 104.651 125.965 105.254 126.344C105.862 126.723 106.344 127.232 106.702 127.872C107.064 128.512 107.246 129.221 107.246 130C107.246 130.581 107.142 131.125 106.934 131.632C106.726 132.139 106.438 132.587 106.07 132.976C105.707 133.36 105.283 133.661 104.798 133.88C104.318 134.099 103.8 134.208 103.246 134.208ZM103.246 132.544C103.688 132.544 104.086 132.427 104.438 132.192C104.79 131.957 105.067 131.648 105.27 131.264C105.478 130.875 105.582 130.453 105.582 130C105.582 129.536 105.475 129.109 105.262 128.72C105.054 128.331 104.774 128.021 104.422 127.792C104.07 127.557 103.678 127.44 103.246 127.44C102.808 127.44 102.411 127.557 102.054 127.792C101.702 128.027 101.422 128.339 101.214 128.728C101.011 129.117 100.91 129.541 100.91 130C100.91 130.475 101.016 130.904 101.23 131.288C101.443 131.672 101.726 131.979 102.078 132.208C102.435 132.432 102.824 132.544 103.246 132.544ZM109.062 131V126H110.726V130.592C110.726 130.949 110.814 131.275 110.99 131.568C111.166 131.861 111.401 132.096 111.694 132.272C111.987 132.443 112.31 132.528 112.662 132.528C113.019 132.528 113.342 132.443 113.63 132.272C113.923 132.096 114.155 131.861 114.326 131.568C114.502 131.275 114.59 130.949 114.59 130.592V126H116.254L116.262 134H114.598L114.59 133.136C114.318 133.467 113.979 133.728 113.574 133.92C113.169 134.112 112.734 134.208 112.27 134.208C111.678 134.208 111.139 134.064 110.654 133.776C110.169 133.488 109.782 133.101 109.494 132.616C109.206 132.131 109.062 131.592 109.062 131ZM125.766 124.184V126H128.022V127.664H125.766V134H124.102V127.664H123.15V126H124.102V124.184C124.102 123.747 124.209 123.349 124.422 122.992C124.635 122.629 124.921 122.341 125.278 122.128C125.641 121.915 126.043 121.808 126.486 121.808C126.806 121.808 127.118 121.872 127.422 122C127.726 122.128 127.998 122.325 128.238 122.592L127.046 123.768C126.987 123.672 126.905 123.6 126.798 123.552C126.697 123.499 126.593 123.472 126.486 123.472C126.289 123.472 126.118 123.541 125.974 123.68C125.835 123.819 125.766 123.987 125.766 124.184ZM133.683 134.208C132.947 134.208 132.275 134.019 131.667 133.64C131.064 133.261 130.582 132.755 130.219 132.12C129.862 131.48 129.683 130.773 129.683 130C129.683 129.413 129.787 128.867 129.995 128.36C130.203 127.848 130.488 127.4 130.851 127.016C131.219 126.627 131.646 126.323 132.131 126.104C132.616 125.885 133.134 125.776 133.683 125.776C134.419 125.776 135.088 125.965 135.691 126.344C136.299 126.723 136.782 127.232 137.139 127.872C137.502 128.512 137.683 129.221 137.683 130C137.683 130.581 137.579 131.125 137.371 131.632C137.163 132.139 136.875 132.587 136.507 132.976C136.144 133.36 135.72 133.661 135.235 133.88C134.755 134.099 134.238 134.208 133.683 134.208ZM133.683 132.544C134.126 132.544 134.523 132.427 134.875 132.192C135.227 131.957 135.504 131.648 135.707 131.264C135.915 130.875 136.019 130.453 136.019 130C136.019 129.536 135.912 129.109 135.699 128.72C135.491 128.331 135.211 128.021 134.859 127.792C134.507 127.557 134.115 127.44 133.683 127.44C133.246 127.44 132.848 127.557 132.491 127.792C132.139 128.027 131.859 128.339 131.651 128.728C131.448 129.117 131.347 129.541 131.347 130C131.347 130.475 131.454 130.904 131.667 131.288C131.88 131.672 132.163 131.979 132.515 132.208C132.872 132.432 133.262 132.544 133.683 132.544ZM139.976 134V126H141.64V126.848C141.917 126.517 142.258 126.256 142.664 126.064C143.069 125.872 143.506 125.776 143.976 125.776C144.274 125.776 144.57 125.816 144.864 125.896L144.2 127.576C143.992 127.496 143.784 127.456 143.576 127.456C143.224 127.456 142.901 127.544 142.608 127.72C142.314 127.891 142.08 128.123 141.904 128.416C141.728 128.709 141.64 129.035 141.64 129.392V134H139.976ZM157.315 126H159.091L154.707 138H152.939L154.387 134L151.515 126H153.331L155.219 131.72L157.315 126ZM164.527 134.208C163.791 134.208 163.119 134.019 162.511 133.64C161.908 133.261 161.426 132.755 161.063 132.12C160.706 131.48 160.527 130.773 160.527 130C160.527 129.413 160.631 128.867 160.839 128.36C161.047 127.848 161.332 127.4 161.695 127.016C162.063 126.627 162.49 126.323 162.975 126.104C163.46 125.885 163.978 125.776 164.527 125.776C165.263 125.776 165.932 125.965 166.535 126.344C167.143 126.723 167.626 127.232 167.983 127.872C168.346 128.512 168.527 129.221 168.527 130C168.527 130.581 168.423 131.125 168.215 131.632C168.007 132.139 167.719 132.587 167.351 132.976C166.988 133.36 166.564 133.661 166.079 133.88C165.599 134.099 165.082 134.208 164.527 134.208ZM164.527 132.544C164.97 132.544 165.367 132.427 165.719 132.192C166.071 131.957 166.348 131.648 166.551 131.264C166.759 130.875 166.863 130.453 166.863 130C166.863 129.536 166.756 129.109 166.543 128.72C166.335 128.331 166.055 128.021 165.703 127.792C165.351 127.557 164.959 127.44 164.527 127.44C164.09 127.44 163.692 127.557 163.335 127.792C162.983 128.027 162.703 128.339 162.495 128.728C162.292 129.117 162.191 129.541 162.191 130C162.191 130.475 162.298 130.904 162.511 131.288C162.724 131.672 163.007 131.979 163.359 132.208C163.716 132.432 164.106 132.544 164.527 132.544ZM170.343 131V126H172.007V130.592C172.007 130.949 172.095 131.275 172.271 131.568C172.447 131.861 172.682 132.096 172.975 132.272C173.268 132.443 173.591 132.528 173.943 132.528C174.3 132.528 174.623 132.443 174.911 132.272C175.204 132.096 175.436 131.861 175.607 131.568C175.783 131.275 175.871 130.949 175.871 130.592V126H177.535L177.543 134H175.879L175.871 133.136C175.599 133.467 175.26 133.728 174.855 133.92C174.45 134.112 174.015 134.208 173.551 134.208C172.959 134.208 172.42 134.064 171.935 133.776C171.45 133.488 171.063 133.101 170.775 132.616C170.487 132.131 170.343 131.592 170.343 131ZM180.148 134V126H181.812V126.848C182.089 126.517 182.43 126.256 182.836 126.064C183.241 125.872 183.678 125.776 184.148 125.776C184.446 125.776 184.742 125.816 185.036 125.896L184.372 127.576C184.164 127.496 183.956 127.456 183.748 127.456C183.396 127.456 183.073 127.544 182.78 127.72C182.486 127.891 182.252 128.123 182.076 128.416C181.9 128.709 181.812 129.035 181.812 129.392V134H180.148ZM194.407 134.152C193.986 134.125 193.575 134.04 193.175 133.896C192.775 133.752 192.423 133.557 192.119 133.312C191.82 133.061 191.596 132.768 191.447 132.432L192.863 131.824C192.932 131.968 193.052 132.109 193.223 132.248C193.399 132.387 193.604 132.501 193.839 132.592C194.074 132.677 194.319 132.72 194.575 132.72C194.826 132.72 195.058 132.685 195.271 132.616C195.49 132.541 195.668 132.429 195.807 132.28C195.946 132.131 196.015 131.952 196.015 131.744C196.015 131.509 195.935 131.328 195.775 131.2C195.62 131.067 195.426 130.965 195.191 130.896C194.956 130.827 194.722 130.76 194.487 130.696C193.964 130.579 193.484 130.419 193.047 130.216C192.615 130.008 192.271 129.744 192.015 129.424C191.759 129.099 191.631 128.701 191.631 128.232C191.631 127.72 191.77 127.277 192.047 126.904C192.324 126.525 192.687 126.235 193.135 126.032C193.588 125.829 194.071 125.728 194.583 125.728C195.223 125.728 195.81 125.864 196.343 126.136C196.876 126.408 197.284 126.781 197.567 127.256L196.247 128.04C196.167 127.88 196.047 127.736 195.887 127.608C195.727 127.48 195.546 127.379 195.343 127.304C195.14 127.224 194.93 127.179 194.711 127.168C194.439 127.157 194.186 127.189 193.951 127.264C193.722 127.333 193.538 127.445 193.399 127.6C193.26 127.755 193.191 127.952 193.191 128.192C193.191 128.427 193.274 128.603 193.439 128.72C193.604 128.832 193.812 128.923 194.063 128.992C194.319 129.061 194.58 129.139 194.847 129.224C195.322 129.373 195.767 129.557 196.183 129.776C196.599 129.989 196.935 130.253 197.191 130.568C197.447 130.883 197.57 131.267 197.559 131.72C197.559 132.221 197.407 132.661 197.103 133.04C196.804 133.419 196.415 133.707 195.935 133.904C195.455 134.101 194.946 134.184 194.407 134.152ZM199.609 131V126H201.273V130.592C201.273 130.949 201.361 131.275 201.537 131.568C201.713 131.861 201.947 132.096 202.241 132.272C202.534 132.443 202.857 132.528 203.209 132.528C203.566 132.528 203.889 132.443 204.177 132.272C204.47 132.096 204.702 131.861 204.873 131.568C205.049 131.275 205.137 130.949 205.137 130.592V126H206.801L206.809 134H205.145L205.137 133.136C204.865 133.467 204.526 133.728 204.121 133.92C203.715 134.112 203.281 134.208 202.817 134.208C202.225 134.208 201.686 134.064 201.201 133.776C200.715 133.488 200.329 133.101 200.041 132.616C199.753 132.131 199.609 131.592 199.609 131ZM213.636 125.776C214.414 125.776 215.121 125.965 215.756 126.344C216.396 126.723 216.905 127.232 217.284 127.872C217.662 128.507 217.852 129.213 217.852 129.992C217.852 130.573 217.742 131.12 217.524 131.632C217.305 132.139 217.001 132.587 216.612 132.976C216.228 133.36 215.78 133.661 215.268 133.88C214.761 134.099 214.217 134.208 213.636 134.208C213.076 134.208 212.585 134.08 212.164 133.824C211.748 133.563 211.406 133.229 211.14 132.824V134H209.476V122H211.14V127.16C211.406 126.749 211.748 126.416 212.164 126.16C212.585 125.904 213.076 125.776 213.636 125.776ZM213.62 132.592C214.084 132.592 214.508 132.475 214.892 132.24C215.276 132.005 215.58 131.691 215.804 131.296C216.033 130.901 216.148 130.467 216.148 129.992C216.148 129.507 216.033 129.067 215.804 128.672C215.574 128.277 215.268 127.965 214.884 127.736C214.5 127.501 214.078 127.384 213.62 127.384C213.156 127.384 212.748 127.501 212.396 127.736C212.044 127.971 211.769 128.285 211.572 128.68C211.374 129.075 211.276 129.512 211.276 129.992C211.276 130.472 211.374 130.909 211.572 131.304C211.769 131.699 212.044 132.013 212.396 132.248C212.748 132.477 213.156 132.592 213.62 132.592ZM220.148 134V126H221.812V126.848C222.089 126.517 222.428 126.256 222.828 126.064C223.233 125.872 223.67 125.776 224.14 125.776C224.71 125.776 225.236 125.915 225.716 126.192C226.196 126.464 226.577 126.827 226.86 127.28C227.142 126.827 227.518 126.464 227.988 126.192C228.462 125.915 228.985 125.776 229.556 125.776C230.148 125.776 230.686 125.92 231.172 126.208C231.657 126.496 232.044 126.883 232.332 127.368C232.62 127.853 232.764 128.392 232.764 128.984V134H231.1V129.408C231.1 129.056 231.014 128.733 230.844 128.44C230.673 128.147 230.444 127.909 230.156 127.728C229.868 127.547 229.548 127.456 229.196 127.456C228.844 127.456 228.524 127.541 228.236 127.712C227.948 127.883 227.718 128.115 227.548 128.408C227.377 128.701 227.292 129.035 227.292 129.408V134H225.628V129.408C225.628 129.035 225.542 128.701 225.372 128.408C225.201 128.115 224.969 127.883 224.676 127.712C224.388 127.541 224.068 127.456 223.716 127.456C223.369 127.456 223.049 127.547 222.756 127.728C222.468 127.909 222.238 128.147 222.068 128.44C221.897 128.733 221.812 129.056 221.812 129.408V134H220.148ZM235.366 126H237.03V134H235.366V126ZM236.214 124.84C235.958 124.84 235.745 124.757 235.574 124.592C235.404 124.427 235.318 124.219 235.318 123.968C235.318 123.723 235.404 123.517 235.574 123.352C235.745 123.181 235.956 123.096 236.206 123.096C236.452 123.096 236.66 123.181 236.83 123.352C237.001 123.517 237.086 123.723 237.086 123.968C237.086 124.219 237.001 124.427 236.83 124.592C236.665 124.757 236.46 124.84 236.214 124.84ZM242.235 134.152C241.814 134.125 241.403 134.04 241.003 133.896C240.603 133.752 240.251 133.557 239.947 133.312C239.648 133.061 239.424 132.768 239.275 132.432L240.691 131.824C240.76 131.968 240.88 132.109 241.051 132.248C241.227 132.387 241.432 132.501 241.667 132.592C241.902 132.677 242.147 132.72 242.403 132.72C242.654 132.72 242.886 132.685 243.099 132.616C243.318 132.541 243.496 132.429 243.635 132.28C243.774 132.131 243.843 131.952 243.843 131.744C243.843 131.509 243.763 131.328 243.603 131.2C243.448 131.067 243.254 130.965 243.019 130.896C242.784 130.827 242.55 130.76 242.315 130.696C241.792 130.579 241.312 130.419 240.875 130.216C240.443 130.008 240.099 129.744 239.843 129.424C239.587 129.099 239.459 128.701 239.459 128.232C239.459 127.72 239.598 127.277 239.875 126.904C240.152 126.525 240.515 126.235 240.963 126.032C241.416 125.829 241.899 125.728 242.411 125.728C243.051 125.728 243.638 125.864 244.171 126.136C244.704 126.408 245.112 126.781 245.395 127.256L244.075 128.04C243.995 127.88 243.875 127.736 243.715 127.608C243.555 127.48 243.374 127.379 243.171 127.304C242.968 127.224 242.758 127.179 242.539 127.168C242.267 127.157 242.014 127.189 241.779 127.264C241.55 127.333 241.366 127.445 241.227 127.6C241.088 127.755 241.019 127.952 241.019 128.192C241.019 128.427 241.102 128.603 241.267 128.72C241.432 128.832 241.64 128.923 241.891 128.992C242.147 129.061 242.408 129.139 242.675 129.224C243.15 129.373 243.595 129.557 244.011 129.776C244.427 129.989 244.763 130.253 245.019 130.568C245.275 130.883 245.398 131.267 245.387 131.72C245.387 132.221 245.235 132.661 244.931 133.04C244.632 133.419 244.243 133.707 243.763 133.904C243.283 134.101 242.774 134.184 242.235 134.152ZM250.157 134.152C249.736 134.125 249.325 134.04 248.925 133.896C248.525 133.752 248.173 133.557 247.869 133.312C247.57 133.061 247.346 132.768 247.197 132.432L248.613 131.824C248.682 131.968 248.802 132.109 248.973 132.248C249.149 132.387 249.354 132.501 249.589 132.592C249.824 132.677 250.069 132.72 250.325 132.72C250.576 132.72 250.808 132.685 251.021 132.616C251.24 132.541 251.418 132.429 251.557 132.28C251.696 132.131 251.765 131.952 251.765 131.744C251.765 131.509 251.685 131.328 251.525 131.2C251.37 131.067 251.176 130.965 250.941 130.896C250.706 130.827 250.472 130.76 250.237 130.696C249.714 130.579 249.234 130.419 248.797 130.216C248.365 130.008 248.021 129.744 247.765 129.424C247.509 129.099 247.381 128.701 247.381 128.232C247.381 127.72 247.52 127.277 247.797 126.904C248.074 126.525 248.437 126.235 248.885 126.032C249.338 125.829 249.821 125.728 250.333 125.728C250.973 125.728 251.56 125.864 252.093 126.136C252.626 126.408 253.034 126.781 253.317 127.256L251.997 128.04C251.917 127.88 251.797 127.736 251.637 127.608C251.477 127.48 251.296 127.379 251.093 127.304C250.89 127.224 250.68 127.179 250.461 127.168C250.189 127.157 249.936 127.189 249.701 127.264C249.472 127.333 249.288 127.445 249.149 127.6C249.01 127.755 248.941 127.952 248.941 128.192C248.941 128.427 249.024 128.603 249.189 128.72C249.354 128.832 249.562 128.923 249.813 128.992C250.069 129.061 250.33 129.139 250.597 129.224C251.072 129.373 251.517 129.557 251.933 129.776C252.349 129.989 252.685 130.253 252.941 130.568C253.197 130.883 253.32 131.267 253.309 131.72C253.309 132.221 253.157 132.661 252.853 133.04C252.554 133.419 252.165 133.707 251.685 133.904C251.205 134.101 250.696 134.184 250.157 134.152ZM255.538 126H257.202V134H255.538V126ZM256.386 124.84C256.13 124.84 255.917 124.757 255.746 124.592C255.575 124.427 255.49 124.219 255.49 123.968C255.49 123.723 255.575 123.517 255.746 123.352C255.917 123.181 256.127 123.096 256.378 123.096C256.623 123.096 256.831 123.181 257.002 123.352C257.173 123.517 257.258 123.723 257.258 123.968C257.258 124.219 257.173 124.427 257.002 124.592C256.837 124.757 256.631 124.84 256.386 124.84ZM263.496 134.208C262.76 134.208 262.088 134.019 261.48 133.64C260.877 133.261 260.394 132.755 260.032 132.12C259.674 131.48 259.496 130.773 259.496 130C259.496 129.413 259.6 128.867 259.808 128.36C260.016 127.848 260.301 127.4 260.664 127.016C261.032 126.627 261.458 126.323 261.944 126.104C262.429 125.885 262.946 125.776 263.496 125.776C264.232 125.776 264.901 125.965 265.504 126.344C266.112 126.723 266.594 127.232 266.952 127.872C267.314 128.512 267.496 129.221 267.496 130C267.496 130.581 267.392 131.125 267.184 131.632C266.976 132.139 266.688 132.587 266.32 132.976C265.957 133.36 265.533 133.661 265.048 133.88C264.568 134.099 264.05 134.208 263.496 134.208ZM263.496 132.544C263.938 132.544 264.336 132.427 264.688 132.192C265.04 131.957 265.317 131.648 265.52 131.264C265.728 130.875 265.832 130.453 265.832 130C265.832 129.536 265.725 129.109 265.512 128.72C265.304 128.331 265.024 128.021 264.672 127.792C264.32 127.557 263.928 127.44 263.496 127.44C263.058 127.44 262.661 127.557 262.304 127.792C261.952 128.027 261.672 128.339 261.464 128.728C261.261 129.117 261.16 129.541 261.16 130C261.16 130.475 261.266 130.904 261.48 131.288C261.693 131.672 261.976 131.979 262.328 132.208C262.685 132.432 263.074 132.544 263.496 132.544ZM276.988 128.984V134H275.324V129.392C275.324 129.035 275.236 128.709 275.06 128.416C274.889 128.123 274.657 127.891 274.364 127.72C274.076 127.544 273.751 127.456 273.388 127.456C273.036 127.456 272.713 127.544 272.42 127.72C272.127 127.891 271.892 128.123 271.716 128.416C271.54 128.709 271.452 129.035 271.452 129.392V134H269.788V126H271.452V126.848C271.729 126.517 272.071 126.256 272.476 126.064C272.881 125.872 273.319 125.776 273.788 125.776C274.38 125.776 274.919 125.92 275.404 126.208C275.889 126.496 276.273 126.883 276.556 127.368C276.844 127.853 276.988 128.392 276.988 128.984ZM60.7678 158L57.9038 146.8H59.6158L61.7118 155.016L63.7998 146.8H65.3118L67.4078 155.016L69.5038 146.8H71.2158L68.3678 158H66.4558L64.5598 150.584L62.6638 158H60.7678ZM76.105 158.208C75.369 158.208 74.697 158.019 74.089 157.64C73.4863 157.261 73.0037 156.755 72.641 156.12C72.2837 155.48 72.105 154.773 72.105 154C72.105 153.413 72.209 152.867 72.417 152.36C72.625 151.848 72.9103 151.4 73.273 151.016C73.641 150.627 74.0677 150.323 74.553 150.104C75.0383 149.885 75.5557 149.776 76.105 149.776C76.7183 149.776 77.281 149.904 77.793 150.16C78.305 150.411 78.7423 150.76 79.105 151.208C79.4677 151.651 79.7343 152.163 79.905 152.744C80.0757 153.32 80.1263 153.933 80.057 154.584H73.889C73.9583 154.952 74.0917 155.285 74.289 155.584C74.4917 155.877 74.7477 156.109 75.057 156.28C75.3717 156.451 75.721 156.539 76.105 156.544C76.5103 156.544 76.8783 156.443 77.209 156.24C77.545 156.037 77.8197 155.757 78.033 155.4L79.721 155.792C79.401 156.501 78.9183 157.083 78.273 157.536C77.6277 157.984 76.905 158.208 76.105 158.208ZM73.833 153.312H78.377C78.3237 152.928 78.1877 152.581 77.969 152.272C77.7557 151.957 77.4863 151.709 77.161 151.528C76.841 151.341 76.489 151.248 76.105 151.248C75.7263 151.248 75.3743 151.339 75.049 151.52C74.729 151.701 74.4623 151.949 74.249 152.264C74.041 152.573 73.9023 152.923 73.833 153.312ZM91.2223 158H89.5663L86.8863 150H88.5182L90.4062 155.616L92.2783 150H93.9583L95.8303 155.616L97.7103 150H99.3423L96.6703 158H94.9983L93.1103 152.344L91.2223 158ZM101.601 150H103.265V158H101.601V150ZM102.449 148.84C102.193 148.84 101.979 148.757 101.809 148.592C101.638 148.427 101.553 148.219 101.553 147.968C101.553 147.723 101.638 147.517 101.809 147.352C101.979 147.181 102.19 147.096 102.441 147.096C102.686 147.096 102.894 147.181 103.065 147.352C103.235 147.517 103.321 147.723 103.321 147.968C103.321 148.219 103.235 148.427 103.065 148.592C102.899 148.757 102.694 148.84 102.449 148.84ZM106.21 158V146H107.874V158H106.21ZM110.788 158V146H112.452V158H110.788ZM125.434 155.728L126.922 156.536C126.559 157.043 126.098 157.448 125.538 157.752C124.983 158.056 124.381 158.208 123.73 158.208C122.994 158.208 122.322 158.019 121.714 157.64C121.111 157.261 120.629 156.755 120.266 156.12C119.909 155.48 119.73 154.773 119.73 154C119.73 153.413 119.834 152.867 120.042 152.36C120.25 151.848 120.535 151.4 120.898 151.016C121.266 150.627 121.693 150.323 122.178 150.104C122.663 149.885 123.181 149.776 123.73 149.776C124.381 149.776 124.983 149.928 125.538 150.232C126.098 150.536 126.559 150.944 126.922 151.456L125.434 152.264C125.21 151.997 124.949 151.795 124.65 151.656C124.351 151.512 124.045 151.44 123.73 151.44C123.293 151.44 122.895 151.56 122.538 151.8C122.186 152.035 121.906 152.347 121.698 152.736C121.495 153.12 121.394 153.541 121.394 154C121.394 154.453 121.498 154.875 121.706 155.264C121.914 155.648 122.194 155.957 122.546 156.192C122.903 156.427 123.298 156.544 123.73 156.544C124.061 156.544 124.375 156.469 124.674 156.32C124.973 156.171 125.226 155.973 125.434 155.728ZM132.699 158.208C131.963 158.208 131.291 158.019 130.683 157.64C130.08 157.261 129.597 156.755 129.235 156.12C128.877 155.48 128.699 154.773 128.699 154C128.699 153.413 128.803 152.867 129.011 152.36C129.219 151.848 129.504 151.4 129.867 151.016C130.235 150.627 130.661 150.323 131.147 150.104C131.632 149.885 132.149 149.776 132.699 149.776C133.435 149.776 134.104 149.965 134.707 150.344C135.315 150.723 135.797 151.232 136.155 151.872C136.517 152.512 136.699 153.221 136.699 154C136.699 154.581 136.595 155.125 136.387 155.632C136.179 156.139 135.891 156.587 135.523 156.976C135.16 157.36 134.736 157.661 134.251 157.88C133.771 158.099 133.253 158.208 132.699 158.208ZM132.699 156.544C133.141 156.544 133.539 156.427 133.891 156.192C134.243 155.957 134.52 155.648 134.723 155.264C134.931 154.875 135.035 154.453 135.035 154C135.035 153.536 134.928 153.109 134.715 152.72C134.507 152.331 134.227 152.021 133.875 151.792C133.523 151.557 133.131 151.44 132.699 151.44C132.261 151.44 131.864 151.557 131.507 151.792C131.155 152.027 130.875 152.339 130.667 152.728C130.464 153.117 130.363 153.541 130.363 154C130.363 154.475 130.469 154.904 130.683 155.288C130.896 155.672 131.179 155.979 131.531 156.208C131.888 156.432 132.277 156.544 132.699 156.544ZM146.191 152.984V158H144.527V153.392C144.527 153.035 144.439 152.709 144.263 152.416C144.093 152.123 143.861 151.891 143.567 151.72C143.279 151.544 142.954 151.456 142.591 151.456C142.239 151.456 141.917 151.544 141.623 151.72C141.33 151.891 141.095 152.123 140.919 152.416C140.743 152.709 140.655 153.035 140.655 153.392V158H138.991V150H140.655V150.848C140.933 150.517 141.274 150.256 141.679 150.064C142.085 149.872 142.522 149.776 142.991 149.776C143.583 149.776 144.122 149.92 144.607 150.208C145.093 150.496 145.477 150.883 145.759 151.368C146.047 151.853 146.191 152.392 146.191 152.984ZM153.012 151.664H151.332L151.324 158H149.66L149.668 151.664H148.396V150H149.668L149.66 147.488H151.324L151.332 150H153.012V151.664ZM161.481 150H163.145V158H161.473L161.409 156.84C161.174 157.251 160.857 157.581 160.457 157.832C160.057 158.083 159.585 158.208 159.041 158.208C158.454 158.208 157.902 158.099 157.385 157.88C156.868 157.656 156.412 157.347 156.017 156.952C155.628 156.557 155.324 156.104 155.105 155.592C154.886 155.075 154.777 154.52 154.777 153.928C154.777 153.357 154.884 152.821 155.097 152.32C155.31 151.813 155.606 151.371 155.985 150.992C156.364 150.613 156.801 150.317 157.297 150.104C157.798 149.885 158.334 149.776 158.905 149.776C159.486 149.776 159.998 149.909 160.441 150.176C160.889 150.437 161.26 150.773 161.553 151.184L161.481 150ZM159.001 156.6C159.47 156.6 159.881 156.485 160.233 156.256C160.585 156.021 160.857 155.707 161.049 155.312C161.246 154.917 161.345 154.48 161.345 154C161.345 153.515 161.246 153.075 161.049 152.68C160.852 152.285 160.577 151.973 160.225 151.744C159.878 151.509 159.47 151.392 159.001 151.392C158.537 151.392 158.113 151.509 157.729 151.744C157.345 151.979 157.041 152.293 156.817 152.688C156.593 153.083 156.481 153.52 156.481 154C156.481 154.485 156.596 154.925 156.825 155.32C157.06 155.709 157.366 156.021 157.745 156.256C158.129 156.485 158.548 156.6 159.001 156.6ZM170.809 155.728L172.297 156.536C171.934 157.043 171.473 157.448 170.913 157.752C170.358 158.056 169.756 158.208 169.105 158.208C168.369 158.208 167.697 158.019 167.089 157.64C166.486 157.261 166.004 156.755 165.641 156.12C165.284 155.48 165.105 154.773 165.105 154C165.105 153.413 165.209 152.867 165.417 152.36C165.625 151.848 165.91 151.4 166.273 151.016C166.641 150.627 167.068 150.323 167.553 150.104C168.038 149.885 168.556 149.776 169.105 149.776C169.756 149.776 170.358 149.928 170.913 150.232C171.473 150.536 171.934 150.944 172.297 151.456L170.809 152.264C170.585 151.997 170.324 151.795 170.025 151.656C169.726 151.512 169.42 151.44 169.105 151.44C168.668 151.44 168.27 151.56 167.913 151.8C167.561 152.035 167.281 152.347 167.073 152.736C166.87 153.12 166.769 153.541 166.769 154C166.769 154.453 166.873 154.875 167.081 155.264C167.289 155.648 167.569 155.957 167.921 156.192C168.278 156.427 168.673 156.544 169.105 156.544C169.436 156.544 169.75 156.469 170.049 156.32C170.348 156.171 170.601 155.973 170.809 155.728ZM178.965 151.664H177.285L177.277 158H175.613L175.621 151.664H174.349V150H175.621L175.613 147.488H177.277L177.285 150H178.965V151.664ZM191.721 150H193.497L189.113 162H187.345L188.793 158L185.921 150H187.737L189.625 155.72L191.721 150ZM198.933 158.208C198.197 158.208 197.525 158.019 196.917 157.64C196.314 157.261 195.832 156.755 195.469 156.12C195.112 155.48 194.933 154.773 194.933 154C194.933 153.413 195.037 152.867 195.245 152.36C195.453 151.848 195.738 151.4 196.101 151.016C196.469 150.627 196.896 150.323 197.381 150.104C197.866 149.885 198.384 149.776 198.933 149.776C199.669 149.776 200.338 149.965 200.941 150.344C201.549 150.723 202.032 151.232 202.389 151.872C202.752 152.512 202.933 153.221 202.933 154C202.933 154.581 202.829 155.125 202.621 155.632C202.413 156.139 202.125 156.587 201.757 156.976C201.394 157.36 200.97 157.661 200.485 157.88C200.005 158.099 199.488 158.208 198.933 158.208ZM198.933 156.544C199.376 156.544 199.773 156.427 200.125 156.192C200.477 155.957 200.754 155.648 200.957 155.264C201.165 154.875 201.269 154.453 201.269 154C201.269 153.536 201.162 153.109 200.949 152.72C200.741 152.331 200.461 152.021 200.109 151.792C199.757 151.557 199.365 151.44 198.933 151.44C198.496 151.44 198.098 151.557 197.741 151.792C197.389 152.027 197.109 152.339 196.901 152.728C196.698 153.117 196.597 153.541 196.597 154C196.597 154.475 196.704 154.904 196.917 155.288C197.13 155.672 197.413 155.979 197.765 156.208C198.122 156.432 198.512 156.544 198.933 156.544ZM204.749 155V150H206.413V154.592C206.413 154.949 206.501 155.275 206.677 155.568C206.853 155.861 207.088 156.096 207.381 156.272C207.675 156.443 207.997 156.528 208.349 156.528C208.707 156.528 209.029 156.443 209.317 156.272C209.611 156.096 209.843 155.861 210.013 155.568C210.189 155.275 210.277 154.949 210.277 154.592V150H211.941L211.949 158H210.285L210.277 157.136C210.005 157.467 209.667 157.728 209.261 157.92C208.856 158.112 208.421 158.208 207.957 158.208C207.365 158.208 206.827 158.064 206.341 157.776C205.856 157.488 205.469 157.101 205.181 156.616C204.893 156.131 204.749 155.592 204.749 155ZM221.798 158.152C221.376 158.125 220.966 158.04 220.566 157.896C220.166 157.752 219.814 157.557 219.51 157.312C219.211 157.061 218.987 156.768 218.838 156.432L220.254 155.824C220.323 155.968 220.443 156.109 220.614 156.248C220.79 156.387 220.995 156.501 221.23 156.592C221.464 156.677 221.71 156.72 221.966 156.72C222.216 156.72 222.448 156.685 222.661 156.616C222.88 156.541 223.059 156.429 223.198 156.28C223.336 156.131 223.406 155.952 223.406 155.744C223.406 155.509 223.326 155.328 223.166 155.2C223.011 155.067 222.816 154.965 222.582 154.896C222.347 154.827 222.112 154.76 221.878 154.696C221.355 154.579 220.875 154.419 220.438 154.216C220.006 154.008 219.662 153.744 219.406 153.424C219.15 153.099 219.022 152.701 219.022 152.232C219.022 151.72 219.16 151.277 219.438 150.904C219.715 150.525 220.078 150.235 220.526 150.032C220.979 149.829 221.462 149.728 221.974 149.728C222.614 149.728 223.2 149.864 223.734 150.136C224.267 150.408 224.675 150.781 224.958 151.256L223.638 152.04C223.558 151.88 223.438 151.736 223.278 151.608C223.118 151.48 222.936 151.379 222.734 151.304C222.531 151.224 222.32 151.179 222.102 151.168C221.83 151.157 221.576 151.189 221.342 151.264C221.112 151.333 220.928 151.445 220.789 151.6C220.651 151.755 220.582 151.952 220.582 152.192C220.582 152.427 220.664 152.603 220.83 152.72C220.995 152.832 221.203 152.923 221.454 152.992C221.71 153.061 221.971 153.139 222.238 153.224C222.712 153.373 223.158 153.557 223.574 153.776C223.99 153.989 224.326 154.253 224.582 154.568C224.838 154.883 224.96 155.267 224.95 155.72C224.95 156.221 224.798 156.661 224.494 157.04C224.195 157.419 223.806 157.707 223.326 157.904C222.846 158.101 222.336 158.184 221.798 158.152ZM230.73 158.208C229.994 158.208 229.322 158.019 228.714 157.64C228.111 157.261 227.629 156.755 227.266 156.12C226.909 155.48 226.73 154.773 226.73 154C226.73 153.413 226.834 152.867 227.042 152.36C227.25 151.848 227.535 151.4 227.898 151.016C228.266 150.627 228.693 150.323 229.178 150.104C229.663 149.885 230.181 149.776 230.73 149.776C231.466 149.776 232.135 149.965 232.738 150.344C233.346 150.723 233.829 151.232 234.186 151.872C234.549 152.512 234.73 153.221 234.73 154C234.73 154.581 234.626 155.125 234.418 155.632C234.21 156.139 233.922 156.587 233.554 156.976C233.191 157.36 232.767 157.661 232.282 157.88C231.802 158.099 231.285 158.208 230.73 158.208ZM230.73 156.544C231.173 156.544 231.57 156.427 231.922 156.192C232.274 155.957 232.551 155.648 232.754 155.264C232.962 154.875 233.066 154.453 233.066 154C233.066 153.536 232.959 153.109 232.746 152.72C232.538 152.331 232.258 152.021 231.906 151.792C231.554 151.557 231.162 151.44 230.73 151.44C230.293 151.44 229.895 151.557 229.538 151.792C229.186 152.027 228.906 152.339 228.698 152.728C228.495 153.117 228.394 153.541 228.394 154C228.394 154.475 228.501 154.904 228.714 155.288C228.927 155.672 229.21 155.979 229.562 156.208C229.919 156.432 230.309 156.544 230.73 156.544ZM240.527 158.208C239.791 158.208 239.119 158.019 238.511 157.64C237.908 157.261 237.426 156.755 237.063 156.12C236.706 155.48 236.527 154.773 236.527 154C236.527 153.413 236.631 152.867 236.839 152.36C237.047 151.848 237.332 151.4 237.695 151.016C238.063 150.627 238.49 150.323 238.975 150.104C239.46 149.885 239.978 149.776 240.527 149.776C241.263 149.776 241.932 149.965 242.535 150.344C243.143 150.723 243.626 151.232 243.983 151.872C244.346 152.512 244.527 153.221 244.527 154C244.527 154.581 244.423 155.125 244.215 155.632C244.007 156.139 243.719 156.587 243.351 156.976C242.988 157.36 242.564 157.661 242.079 157.88C241.599 158.099 241.082 158.208 240.527 158.208ZM240.527 156.544C240.97 156.544 241.367 156.427 241.719 156.192C242.071 155.957 242.348 155.648 242.551 155.264C242.759 154.875 242.863 154.453 242.863 154C242.863 153.536 242.756 153.109 242.543 152.72C242.335 152.331 242.055 152.021 241.703 151.792C241.351 151.557 240.959 151.44 240.527 151.44C240.09 151.44 239.692 151.557 239.335 151.792C238.983 152.027 238.703 152.339 238.495 152.728C238.292 153.117 238.191 153.541 238.191 154C238.191 154.475 238.298 154.904 238.511 155.288C238.724 155.672 239.007 155.979 239.359 156.208C239.716 156.432 240.106 156.544 240.527 156.544ZM254.019 152.984V158H252.355V153.392C252.355 153.035 252.267 152.709 252.091 152.416C251.921 152.123 251.689 151.891 251.395 151.72C251.107 151.544 250.782 151.456 250.419 151.456C250.067 151.456 249.745 151.544 249.451 151.72C249.158 151.891 248.923 152.123 248.747 152.416C248.571 152.709 248.483 153.035 248.483 153.392V158H246.819V150H248.483V150.848C248.761 150.517 249.102 150.256 249.507 150.064C249.913 149.872 250.35 149.776 250.819 149.776C251.411 149.776 251.95 149.92 252.435 150.208C252.921 150.496 253.305 150.883 253.587 151.368C253.875 151.853 254.019 152.392 254.019 152.984Z" fill="white"/>
<ellipse cx="150.551" cy="61" rx="33.6762" ry="34" stroke="white" stroke-width="1.7"/>
<path d="M90.2418 60.0418L84.2162 70.5789M92.4474 68.3522L82.0106 62.2686" stroke="white" stroke-linecap="round" stroke-linejoin="round"/>
<path d="M217.429 25V40M224.857 32.5L210 32.5" stroke="white" stroke-width="2" stroke-linecap="round" stroke-linejoin="round"/>
<ellipse cx="72.9905" cy="32" rx="0.990476" ry="1" fill="white"/>
<ellipse cx="190.971" cy="98" rx="2.97143" ry="3" fill="white"/>
</svg>
