<svg width="64" height="101" viewBox="0 0 64 101" fill="none" xmlns="http://www.w3.org/2000/svg">
<path fill-rule="evenodd" clip-rule="evenodd" d="M32 15.9492L64 73.5655L56.3809 73.5655L64 87.2837L56.3809 87.2837L64 101.002L-1.22704e-08 101.002L7.61905 87.2837L-1.02913e-08 87.2837L7.61905 73.5655L-8.31222e-09 73.5655L32 15.9492ZM9.14305 73.5655L2.26209 85.9547L8.35715 85.9547L15.2381 73.5655L9.14305 73.5655ZM15.9762 72.2366L9.88115 72.2366L32 32.4114L54.1189 72.2366L48.0238 72.2366L32 43.3856L15.9762 72.2366ZM16.7621 73.5655L9.88115 85.9547L54.1189 85.9547L47.2379 73.5655L16.7621 73.5655ZM46.4998 72.2366L17.5002 72.2366L32 46.1295L46.4998 72.2366ZM48.7619 73.5655L55.6428 85.9547L61.7379 85.9547L54.8569 73.5655L48.7619 73.5655ZM55.6428 72.2366L32 29.6674L8.35715 72.2366L2.26209 72.2366L32 18.6932L61.7379 72.2366L55.6428 72.2366ZM2.26209 99.6729L9.14305 87.2837L54.8569 87.2837L61.7379 99.6729L2.26209 99.6729Z" fill="url(#paint0_linear_4014_7813)"/>
<path d="M32 -1.15037e-09L33.1694 5.15984L37.6569 2.33544L34.8231 6.80815L40 7.97368L34.8231 9.13921L37.6569 13.6119L33.1694 10.7875L32 15.9474L30.8306 10.7875L26.3431 13.6119L29.1769 9.13921L24 7.97368L29.1769 6.80815L26.3431 2.33544L30.8306 5.15984L32 -1.15037e-09Z" fill="url(#paint1_radial_4014_7813)"/>
<defs>
<linearGradient id="paint0_linear_4014_7813" x1="32" y1="15.9492" x2="31.974" y2="113.627" gradientUnits="userSpaceOnUse">
<stop stop-color="white"/>
<stop offset="1" stop-color="white" stop-opacity="0"/>
</linearGradient>
<radialGradient id="paint1_radial_4014_7813" cx="0" cy="0" r="1" gradientUnits="userSpaceOnUse" gradientTransform="translate(32 7.97368) rotate(90) scale(7.97368 8)">
<stop stop-color="white"/>
<stop offset="1" stop-color="#C4C4C4" stop-opacity="0"/>
</radialGradient>
</defs>
</svg>
